<?xml version="1.0" encoding="utf-8"?>
<!-- Generator: Adobe Illustrator 21.1.0, SVG Export Plug-In . SVG Version: 6.00 Build 0)  -->
<svg version="1.1" id="Слой_1" xmlns="http://www.w3.org/2000/svg" xmlns:xlink="http://www.w3.org/1999/xlink" x="0px" y="0px"
	 viewBox="0 0 16.8 22" style="enable-background:new 0 0 16.8 22;" xml:space="preserve">
<path d="M8.9,7c0-0.3,0.2-0.5,0.5-0.5h0.1C9.7,6.5,10,6.7,10,7S9.7,7.5,9.5,7.5H9.4C9.1,7.5,8.9,7.3,8.9,7z M16.8,21.6
	c0,0.1,0,0.1-0.1,0.2c0,0.1-0.1,0.1-0.2,0.1c-0.1,0-0.1,0.1-0.2,0.1c0,0-14.1,0-14.1,0C1,22,0,21,0,19.7V2.1C0,1,1,0,2.1,0h12.5
	c0.6,0,1.1,0.2,1.5,0.6c0.4,0.4,0.6,0.9,0.6,1.5V18c0,0,0,0,0,0.1c0,0.1,0,0.1-0.1,0.2c0,0.1-0.1,0.1-0.1,0.2c0,0,0,0,0,0
	c-0.4,0.3-0.7,0.8-0.7,1.3c0,0.6,0.3,1.1,0.7,1.3c0,0,0,0,0,0h0c0,0,0,0,0,0c0.1,0,0.1,0.1,0.1,0.2c0,0.1,0.1,0.1,0.1,0.2
	C16.8,21.5,16.8,21.6,16.8,21.6z M2,19.7c0-0.3,0.2-0.5,0.5-0.5h12.4c0.1-0.3,0.1-0.5,0.3-0.8H2.3C1.6,18.5,1,19,1,19.7
	C1,20.4,1.6,21,2.3,21h12.9c-0.1-0.2-0.2-0.5-0.3-0.8H2.5C2.3,20.2,2,20,2,19.7z M15.8,2.1c0-0.3-0.1-0.6-0.3-0.8
	C15.2,1.1,14.9,1,14.6,1l-1,0L2.1,1C1.5,1,1,1.5,1,2.1v15.7c0.4-0.2,0.8-0.4,1.3-0.4h13.5L15.8,2.1L15.8,2.1z M12.2,11
	c-0.3-0.1-0.5,0.1-0.6,0.3c-0.1,0.3,0.1,0.5,0.3,0.6c0.3,0.1,0.4,0.3,0.4,0.6c0,0.4-0.3,0.7-0.7,0.7H7.2c-0.4,0-0.7-0.3-0.7-0.7
	c0-0.3,0.2-0.5,0.4-0.6c0.3-0.1,0.4-0.4,0.3-0.6C7.2,11.1,6.9,11,6.7,11c-0.7,0.2-1.1,0.9-1.1,1.6c0,0.9,0.7,1.6,1.6,1.6h4.5
	c0.9,0,1.6-0.7,1.6-1.6C13.3,11.9,12.8,11.3,12.2,11z M2.4,1.7c-0.3,0-0.5,0.2-0.5,0.5v14.1c0,0.3,0.2,0.5,0.5,0.5
	c0.3,0,0.5-0.2,0.5-0.5V2.2C2.9,1.9,2.7,1.7,2.4,1.7z M8.1,10.7C7.2,8.9,6.6,7.7,6.6,7c0-1.5,1.2-2.8,2.8-2.8c1.5,0,2.8,1.2,2.8,2.8
	c0,0.7-0.5,1.9-1.4,3.6c0,0-0.3,0.6-0.3,0.7c-0.1,0.3-0.4,0.8-1,0.8c-0.7,0-0.9-0.5-1-0.8C8.4,11.3,8.1,10.7,8.1,10.7z M7.6,7
	c0,0.6,0.9,2.4,1.3,3.2c0,0,0.3,0.6,0.3,0.7c0,0.1,0.1,0.2,0.1,0.2c0,0,0,0,0.1,0c0,0,0.1-0.1,0.1-0.2c0,0,0.3-0.7,0.3-0.7
	c0.4-0.8,1.3-2.6,1.3-3.2c0-1-0.8-1.8-1.8-1.8C8.4,5.2,7.6,6,7.6,7z"/>
</svg>
