<?xml version="1.0" encoding="utf-8"?>
<!-- Generator: Adobe Illustrator 21.1.0, SVG Export Plug-In . SVG Version: 6.00 Build 0)  -->
<svg version="1.1" id="Слой_1" xmlns="http://www.w3.org/2000/svg" xmlns:xlink="http://www.w3.org/1999/xlink" x="0px" y="0px"
	 viewBox="0 0 12.6 16" style="enable-background:new 0 0 12.6 16;" xml:space="preserve">
<path d="M11.6,1.9H9.4V0.5C9.4,0.2,9.2,0,8.9,0c0,0,0,0-0.1,0c0,0,0,0,0,0h-5h0h0C3.5,0,3.2,0.2,3.2,0.5v1.4H1.1C0.5,1.9,0,2.4,0,3
	v0.8v1h0.9v10.2C0.9,15.5,1.4,16,2,16h8.6c0.6,0,1.1-0.5,1.1-1.1V4.8h0.9v-1V3C12.6,2.4,12.2,1.9,11.6,1.9z M4.2,1h4.2v0.9H4.2V1z
	 M10.7,14.9C10.7,15,10.7,15,10.7,14.9L2,15c-0.1,0-0.1,0-0.1-0.1V4.8h8.8V14.9z M11.6,3.8H1V3c0-0.1,0-0.1,0.1-0.1h10.5
	c0.1,0,0.1,0,0.1,0.1V3.8z"/>
<path d="M9.1,5.9h-1v8.2h1V5.9z"/>
<path d="M6.8,5.9h-1v8.2h1V5.9z"/>
<path d="M4.5,5.9h-1v8.2h1V5.9z"/>
</svg>
