<?xml version="1.0" encoding="utf-8"?>
<!-- Generator: Adobe Illustrator 21.1.0, SVG Export Plug-In . SVG Version: 6.00 Build 0)  -->
<svg version="1.1" id="Слой_1" xmlns="http://www.w3.org/2000/svg" xmlns:xlink="http://www.w3.org/1999/xlink" x="0px" y="0px"
	 viewBox="0 0 18.5 17.2" style="enable-background:new 0 0 18.5 17.2;" xml:space="preserve">
<g>
	<path d="M17.7,8.4c-0.3,0-0.5,0.2-0.5,0.5v4.7c0,1.3-1,2.3-2.3,2.3H3.6c-1.3,0-2.3-1-2.3-2.3V8.8c0-0.3-0.2-0.5-0.5-0.5
		c-0.3,0-0.5,0.2-0.5,0.5v4.8c0,1.8,1.5,3.3,3.3,3.3h11.3c1.8,0,3.3-1.5,3.3-3.3V8.9C18.3,8.6,18,8.4,17.7,8.4z"/>
	<path d="M14.9,17.2H3.6c-2,0-3.6-1.6-3.6-3.6V8.8c0-0.4,0.3-0.8,0.8-0.8s0.8,0.3,0.8,0.8v4.8c0,1.1,0.9,2.1,2.1,2.1h11.3
		c1.1,0,2.1-0.9,2.1-2.1V8.9c0-0.4,0.3-0.8,0.8-0.8s0.8,0.3,0.8,0.8v4.7C18.5,15.6,16.9,17.2,14.9,17.2z M0.8,8.6
		c-0.1,0-0.3,0.1-0.3,0.3v4.8c0,1.7,1.4,3.1,3.1,3.1h11.3c1.7,0,3.1-1.4,3.1-3.1V8.9c0-0.1-0.1-0.3-0.3-0.3c-0.1,0-0.3,0.1-0.3,0.3
		v4.7c0,1.4-1.1,2.6-2.6,2.6H3.6C2.2,16.2,1,15,1,13.6V8.8C1,8.7,0.9,8.6,0.8,8.6z"/>
</g>
<g>
	<path d="M8.9,12.8C9,12.9,9.1,13,9.2,13s0.3,0,0.4-0.2l3.3-3.3c0.2-0.2,0.2-0.5,0-0.7c-0.2-0.2-0.5-0.2-0.7,0l-2.4,2.4V0.8
		c0-0.3-0.2-0.5-0.5-0.5C9,0.3,8.7,0.5,8.7,0.8v10.5L6.3,8.8c-0.2-0.2-0.5-0.2-0.7,0C5.4,9,5.4,9.4,5.6,9.6L8.9,12.8z"/>
	<path d="M9.2,13.2c-0.2,0-0.4-0.1-0.5-0.2L5.4,9.7C5.1,9.4,5.1,9,5.4,8.7c0.3-0.3,0.8-0.3,1.1,0l2,2V0.8C8.5,0.3,8.8,0,9.2,0
		S10,0.3,10,0.8v9.9l2-2c0.3-0.3,0.8-0.3,1.1,0c0.3,0.3,0.3,0.8,0,1.1L9.8,13C9.7,13.2,9.5,13.2,9.2,13.2z M6,8.9
		C5.9,8.9,5.8,9,5.8,9c-0.1,0.1-0.1,0.3,0,0.4l3.3,3.3c0.1,0.1,0.2,0.2,0.4,0l3.3-3.3c0.1-0.1,0.1-0.3,0-0.4c-0.1-0.1-0.3-0.1-0.4,0
		l-2.8,2.8V0.8c0-0.1-0.1-0.3-0.3-0.3C9.1,0.5,9,0.6,9,0.8v11.1L6.2,9C6.1,9,6,8.9,6,8.9z"/>
</g>
</svg>
