<?xml version="1.0" encoding="utf-8"?>
<!-- Generator: Adobe Illustrator 21.1.0, SVG Export Plug-In . SVG Version: 6.00 Build 0)  -->
<svg version="1.1" id="Слой_1" xmlns="http://www.w3.org/2000/svg" xmlns:xlink="http://www.w3.org/1999/xlink" x="0px" y="0px"
	 viewBox="0 0 23.5 31.3" style="enable-background:new 0 0 23.5 31.3;" xml:space="preserve">
<path d="M13.1,13.1c-0.4-0.2-0.9-0.3-1.5-0.3c-0.4,0-0.8,0.1-1.1,0.2c-0.3,0.1-0.6,0.3-0.9,0.6c-0.2,0.3-0.4,0.6-0.5,0.9
	c-0.1,0.4-0.2,0.8-0.2,1.2c0,0.4,0.1,0.8,0.2,1.2c0.1,0.3,0.3,0.7,0.5,0.9c0.2,0.3,0.5,0.4,0.9,0.6c0.3,0.1,0.7,0.2,1.2,0.2
	c0.4,0,0.8-0.1,1.2-0.2c0.3-0.1,0.6-0.3,0.9-0.6c0.2-0.3,0.4-0.6,0.5-0.9s0.2-0.7,0.2-1.2c0-0.6-0.1-1.1-0.3-1.5
	C13.8,13.7,13.5,13.3,13.1,13.1z M13,16.8c-0.2,0.3-0.3,0.5-0.6,0.7c-0.3,0.2-0.5,0.2-0.8,0.2c-0.2,0-0.4,0-0.6-0.1
	c-0.2-0.1-0.3-0.2-0.5-0.4c-0.2-0.2-0.3-0.4-0.3-0.6C10.1,16.3,10,16,10,15.7c0-0.3,0-0.6,0.1-0.9c0.1-0.3,0.2-0.5,0.3-0.6
	c0.1-0.2,0.3-0.3,0.5-0.4c0.2-0.1,0.4-0.1,0.6-0.1c0.3,0,0.6,0.1,0.9,0.2c0.3,0.2,0.4,0.4,0.6,0.7c0.1,0.3,0.2,0.7,0.2,1.1
	C13.2,16.1,13.1,16.4,13,16.8z"/>
<path d="M23.5,6.3L23.5,6.3L23.5,6.3l-6-6.1l0,0c0,0,0,0,0,0c0,0,0,0,0,0C17.3,0,17.2,0,17,0H2.1C1.5,0,1,0.3,0.6,0.6
	C0.3,1,0,1.6,0,2.2v27c0,0.6,0.2,1.1,0.6,1.5l0,0c0.4,0.4,0.9,0.6,1.5,0.6h19.2c0.6,0,1.1-0.3,1.5-0.6c0.4-0.4,0.6-1,0.6-1.5V6.6
	C23.5,6.4,23.5,6.4,23.5,6.3z M17.6,2.3l3.6,3.6h-2.6c-0.3,0-0.5-0.1-0.7-0.3c-0.2-0.2-0.3-0.4-0.3-0.7V2.3z M22.2,29.2
	c0,0.2-0.1,0.4-0.3,0.6c-0.2,0.2-0.3,0.3-0.6,0.3H2.1c-0.2,0-0.4-0.1-0.6-0.3l0,0c-0.1-0.2-0.2-0.3-0.2-0.5V2.1
	c0-0.2,0.1-0.4,0.3-0.6c0.2-0.2,0.3-0.3,0.6-0.3h14.2v3.6c0,0.6,0.3,1.2,0.7,1.7c0.4,0.4,1,0.7,1.6,0.7h3.5V29.2z"/>
<path d="M16.7,13c-0.3,0.1-0.6,0.3-0.9,0.6c-0.3,0.3-0.4,0.6-0.6,0.9c-0.1,0.3-0.2,0.8-0.2,1.2c0,0.3,0,0.5,0.1,0.8
	c0.1,0.3,0.1,0.5,0.2,0.7c0.1,0.2,0.2,0.4,0.4,0.6c0.2,0.2,0.3,0.3,0.5,0.5c0.2,0.1,0.4,0.2,0.7,0.3c0.3,0.1,0.5,0.1,0.8,0.1
	c0.4,0,0.7-0.1,1-0.2c0.3-0.1,0.5-0.3,0.7-0.5c0.2-0.2,0.3-0.4,0.4-0.6c0.1-0.2,0.1-0.4,0.1-0.6c0-0.1-0.1-0.3-0.2-0.3
	c-0.1-0.1-0.2-0.1-0.3-0.1c-0.2,0-0.3,0-0.3,0.1c-0.1,0.1-0.1,0.2-0.2,0.3c-0.1,0.3-0.3,0.5-0.5,0.7c-0.2,0.2-0.5,0.3-0.8,0.3
	c-0.3,0-0.6-0.1-0.8-0.2c-0.2-0.2-0.4-0.3-0.5-0.6c-0.1-0.3-0.2-0.6-0.2-1.1c0-0.6,0.1-1.1,0.4-1.5c0.3-0.3,0.6-0.5,1.1-0.5
	c0.3,0,0.5,0.1,0.7,0.2c0.2,0.1,0.4,0.3,0.5,0.6c0.1,0.2,0.2,0.3,0.3,0.3c0.1,0.1,0.2,0.1,0.3,0.1s0.3-0.1,0.3-0.2
	c0.1-0.1,0.1-0.2,0.1-0.3c0-0.2-0.1-0.5-0.3-0.8c-0.2-0.3-0.4-0.5-0.8-0.7c-0.3-0.2-0.8-0.3-1.2-0.3C17.4,12.8,17.1,12.8,16.7,13z"
	/>
<path d="M7.3,13.4c-0.2-0.2-0.5-0.3-0.8-0.4c-0.3-0.1-0.6-0.1-1-0.1H4.1c-0.3,0-0.4,0.1-0.5,0.2c-0.1,0.1-0.2,0.3-0.2,0.5v4.1
	c0,0.2,0,0.3,0.1,0.4c0,0.1,0.1,0.2,0.2,0.3c0.1,0.1,0.3,0.1,0.5,0.1h1.5c0.3,0,0.5,0,0.7-0.1c0.2,0,0.4-0.1,0.6-0.2
	c0.2-0.1,0.3-0.2,0.5-0.3c0.2-0.2,0.3-0.4,0.5-0.6c0.1-0.2,0.2-0.5,0.3-0.8c0.1-0.3,0.1-0.6,0.1-0.9C8.2,14.6,7.9,13.9,7.3,13.4z
	 M6.5,17.3c-0.1,0.1-0.2,0.1-0.3,0.2c-0.1,0-0.2,0.1-0.3,0.1c-0.1,0-0.3,0-0.4,0H4.6v-3.7h0.8c0.3,0,0.6,0,0.9,0.1
	c0.3,0.1,0.4,0.3,0.6,0.5c0.2,0.3,0.3,0.7,0.3,1.2C7,16.4,6.9,17,6.5,17.3z"/>
</svg>
