<?xml version="1.0" encoding="utf-8"?>
<!-- Generator: Adobe Illustrator 21.1.0, SVG Export Plug-In . SVG Version: 6.00 Build 0)  -->
<svg version="1.1" id="Слой_1" xmlns="http://www.w3.org/2000/svg" xmlns:xlink="http://www.w3.org/1999/xlink" x="0px" y="0px"
	 viewBox="0 0 24 24" style="enable-background:new 0 0 24 24;" xml:space="preserve">
<style type="text/css">
	.st0{clip-path:url(#SVGID_2_);}
</style>
<g>
	<defs>
		<rect id="SVGID_1_" width="24" height="24"/>
	</defs>
	<clipPath id="SVGID_2_">
		<use xlink:href="#SVGID_1_"  style="overflow:visible;"/>
	</clipPath>
	<g class="st0">
		<path d="M3.5,4C2.7,4,2,4.7,2,5.5v4h1v-4C3,5.2,3.2,5,3.5,5h12V4H3.5z"/>
		<path d="M3.5,19C3.2,19,3,18.8,3,18.5v-5H2v5C2,19.3,2.7,20,3.5,20h5v-1H3.5z"/>
		<path d="M15.9,20.3L3.7,8.1C3.5,7.9,3.2,7.9,3,8.1L0.1,11c-0.2,0.2-0.2,0.5,0,0.7l12.1,12.1c0.1,0.1,0.2,0.1,0.4,0.1
			c0.1,0,0.3-0.1,0.4-0.1l2.9-2.9C16,20.8,16,20.5,15.9,20.3z M12.6,22.8L1.2,11.3l2.2-2.2l11.4,11.4L12.6,22.8z"/>
		<path d="M22,19h-7.5v1H20v2.5c0,0.3,0.2,0.5,0.5,0.5H22c1.1,0,2-0.9,2-2C24,19.9,23.1,19,22,19z M22,22h-1v-2h1c0.6,0,1,0.4,1,1
			C23,21.5,22.6,22,22,22z"/>
		<path d="M22,4h-2.5v1H22c0.6,0,1,0.4,1,1v15h1V6C24,4.9,23.1,4,22,4z"/>
		<path d="M9.1,14.1l-1.5,1.5l0.7,0.7l1.5-1.5L9.1,14.1z"/>
		<path d="M7.1,12.1l-1.5,1.5l0.7,0.7l1.5-1.5L7.1,12.1z"/>
		<path d="M11.1,16.1l-1.5,1.5l0.7,0.7l1.5-1.5L11.1,16.1z"/>
		<path d="M13.1,18.1l-1.5,1.5l0.7,0.7l1.5-1.5L13.1,18.1z"/>
		<path d="M5.1,10.1l-1.5,1.5l0.7,0.7l1.5-1.5L5.1,10.1z"/>
		<path d="M21.6,1.1l-0.7-0.7c-0.6-0.6-1.5-0.6-2.1,0L11.2,8c-0.2,0.2-0.2,0.5,0,0.7l2.1,2.1c0.1,0.1,0.2,0.1,0.4,0.1
			c0.1,0,0.3-0.1,0.4-0.1l7.6-7.6c0,0,0,0,0,0C22.1,2.6,22.1,1.7,21.6,1.1z M20.9,2.5l-7.3,7.2l-1.4-1.4l7.2-7.2
			C19.7,1,20,1,20.2,1.1l0.7,0.7c0,0,0,0,0,0C21,2,21,2.3,20.9,2.5z"/>
		<path d="M13.5,10l-2.2,0.7L12,8.5l-0.9-0.3l-1,3.1c0,0.1,0,0.1,0,0.2c0,0.3,0.2,0.5,0.5,0.5c0.1,0,0.1,0,0.2,0l3.1-1L13.5,10z"/>
		<path d="M18.1,1.8l-0.7,0.7l2.1,2.1l0.7-0.7L18.1,1.8z"/>
		<path d="M18,11h-7.5v1H18V11z"/>
		<path d="M20,11h-1v1h1V11z"/>
		<path d="M22,11h-1v1h1V11z"/>
	</g>
</g>
</svg>
