<?xml version="1.0" encoding="utf-8"?>
<!-- Generator: Adobe Illustrator 21.1.0, SVG Export Plug-In . SVG Version: 6.00 Build 0)  -->
<svg version="1.1" id="Слой_1" xmlns="http://www.w3.org/2000/svg" xmlns:xlink="http://www.w3.org/1999/xlink" x="0px" y="0px"
	 viewBox="0 0 21.2 21.2" style="enable-background:new 0 0 21.2 21.2;" xml:space="preserve">
<g>
	<path d="M18,3.2c-2-2-4.6-3.1-7.4-3.1c-2.8,0-5.4,1.1-7.4,3.1c-2,2-3.1,4.6-3.1,7.4c0,2.8,1.1,5.4,3.1,7.4c2,2,4.6,3.1,7.4,3.1
		c2.8,0,5.4-1.1,7.4-3.1s3.1-4.6,3.1-7.4C21.1,7.8,20,5.2,18,3.2z M10.6,20.3c-5.3,0-9.7-4.3-9.7-9.7c0-5.3,4.3-9.7,9.7-9.7
		c5.3,0,9.7,4.3,9.7,9.7C20.3,15.9,15.9,20.3,10.6,20.3z"/>
	<path d="M10.6,21.2c-2.8,0-5.5-1.1-7.5-3.1S0,13.4,0,10.6s1.1-5.5,3.1-7.5c2-2,4.7-3.1,7.5-3.1s5.5,1.1,7.5,3.1l0,0
		c2,2,3.1,4.7,3.1,7.5c0,2.8-1.1,5.5-3.1,7.5S13.4,21.2,10.6,21.2z M10.6,0.2c-2.8,0-5.4,1.1-7.4,3s-3,4.6-3,7.4
		c0,2.8,1.1,5.4,3,7.4c2,2,4.6,3,7.4,3s5.4-1.1,7.4-3c2-2,3-4.6,3-7.4s-1.1-5.4-3-7.4l0,0C16,1.3,13.4,0.2,10.6,0.2z M10.6,20.4
		c-5.4,0-9.8-4.4-9.8-9.8s4.4-9.8,9.8-9.8s9.8,4.4,9.8,9.8S16,20.4,10.6,20.4z M10.6,1C5.3,1,1,5.3,1,10.6s4.3,9.6,9.6,9.6
		s9.6-4.3,9.6-9.6S15.9,1,10.6,1z"/>
</g>
<g>
	<path d="M19.1,12.3c-0.2-0.1-0.5,0.1-0.5,0.3c-0.2,0.9-0.6,1.8-1.2,2.6c-0.1,0.2-0.1,0.5,0.1,0.6c0.1,0,0.2,0.1,0.2,0.1
		c0.1,0,0.3-0.1,0.3-0.2c0.6-0.9,1-1.8,1.3-2.8C19.4,12.6,19.3,12.4,19.1,12.3z"/>
	<path d="M17.7,15.9c-0.1,0-0.2,0-0.3-0.1c-0.1-0.1-0.2-0.2-0.2-0.3c0-0.1,0-0.3,0.1-0.4c0.5-0.8,0.9-1.6,1.1-2.5
		c0.1-0.3,0.4-0.4,0.6-0.4h0c0.3,0.1,0.4,0.4,0.4,0.6c-0.3,1-0.7,2-1.3,2.9C18.1,15.9,17.9,15.9,17.7,15.9z M19,12.4
		c-0.1,0-0.3,0.1-0.3,0.2c-0.2,0.9-0.6,1.8-1.2,2.6c0,0.1-0.1,0.2,0,0.2c0,0.1,0.1,0.2,0.1,0.2c0.1,0.1,0.3,0.1,0.4-0.1
		c0.6-0.9,1-1.8,1.3-2.8C19.3,12.6,19.2,12.5,19,12.4L19,12.4C19,12.4,19,12.4,19,12.4z"/>
</g>
<g>
	<path d="M19.2,10.2c-0.2,0-0.4,0.2-0.4,0.4c0,0.1,0,0.2,0,0.4c0,0.2,0.2,0.4,0.4,0.4c0,0,0,0,0,0c0.2,0,0.4-0.2,0.4-0.4
		c0-0.1,0-0.3,0-0.4C19.6,10.4,19.4,10.2,19.2,10.2z"/>
	<path d="M19.2,11.5L19.2,11.5c-0.2,0-0.3-0.1-0.4-0.2s-0.1-0.2-0.1-0.4c0-0.1,0-0.2,0-0.4c0-0.3,0.2-0.5,0.5-0.5
		c0.3,0,0.5,0.2,0.5,0.5c0,0.1,0,0.3,0,0.4C19.7,11.3,19.5,11.5,19.2,11.5z M19.2,10.3c-0.2,0-0.3,0.1-0.3,0.3c0,0.1,0,0.2,0,0.4
		c0,0.1,0,0.2,0.1,0.2c0.1,0.1,0.1,0.1,0.2,0.1c0,0,0,0,0,0c0.2,0,0.3-0.1,0.3-0.3c0-0.1,0-0.3,0-0.4C19.5,10.4,19.4,10.3,19.2,10.3
		z"/>
</g>
<g>
	<path d="M10.6,7.2c-0.8,0-1.5,0.7-1.5,1.5v7.3c0,0.8,0.7,1.5,1.5,1.5c0.8,0,1.5-0.7,1.5-1.5V8.7C12.1,7.8,11.4,7.2,10.6,7.2z
		 M11.2,15.9c0,0.3-0.3,0.6-0.6,0.6c-0.3,0-0.6-0.3-0.6-0.6V8.7C10,8.3,10.3,8,10.6,8c0.3,0,0.6,0.3,0.6,0.6V15.9z"/>
	<path d="M10.6,17.5c-0.9,0-1.6-0.7-1.6-1.6V8.7c0-0.9,0.7-1.6,1.6-1.6c0.9,0,1.6,0.7,1.6,1.6v7.3C12.2,16.8,11.5,17.5,10.6,17.5z
		 M10.6,7.3c-0.8,0-1.4,0.6-1.4,1.4v7.3c0,0.8,0.6,1.4,1.4,1.4c0.8,0,1.4-0.6,1.4-1.4V8.7C12,7.9,11.4,7.3,10.6,7.3z M10.6,16.7
		c-0.4,0-0.7-0.3-0.7-0.7V8.7c0-0.4,0.3-0.7,0.7-0.7c0.4,0,0.7,0.3,0.7,0.7v7.3C11.3,16.3,11,16.7,10.6,16.7z M10.6,8.1
		c-0.3,0-0.5,0.2-0.5,0.5v7.3c0,0.3,0.2,0.5,0.5,0.5s0.5-0.2,0.5-0.5V8.7C11.1,8.4,10.9,8.1,10.6,8.1z"/>
</g>
<g>
	<path d="M11.6,4.2c-0.3-0.3-0.7-0.4-1-0.4S9.8,4,9.6,4.2c-0.3,0.3-0.4,0.6-0.4,1c0,0.4,0.2,0.8,0.4,1c0.3,0.3,0.7,0.4,1,0.4
		c0.4,0,0.8-0.2,1-0.4c0.3-0.3,0.4-0.7,0.4-1C12.1,4.9,11.9,4.5,11.6,4.2z M11,5.7c-0.1,0.1-0.3,0.2-0.4,0.2s-0.3-0.1-0.4-0.2
		C10,5.6,10,5.4,10,5.3c0-0.2,0.1-0.3,0.2-0.4c0.1-0.1,0.3-0.2,0.4-0.2c0.2,0,0.3,0.1,0.4,0.2c0.1,0.1,0.2,0.3,0.2,0.4
		C11.2,5.4,11.2,5.6,11,5.7z"/>
	<path d="M10.6,6.8c-0.4,0-0.8-0.2-1.1-0.5C9.2,6.1,9,5.7,9,5.3c0-0.4,0.2-0.8,0.5-1.1c0.3-0.3,0.7-0.5,1.1-0.5
		c0.4,0,0.8,0.2,1.1,0.5c0.3,0.3,0.5,0.7,0.5,1.1c0,0.4-0.2,0.8-0.5,1.1C11.4,6.7,11,6.8,10.6,6.8z M10.6,3.9c-0.4,0-0.7,0.1-1,0.4
		c-0.3,0.3-0.4,0.6-0.4,1c0,0.4,0.1,0.7,0.4,1c0.3,0.3,0.6,0.4,1,0.4c0.4,0,0.7-0.1,1-0.4C11.8,6,12,5.6,12,5.3c0-0.4-0.1-0.7-0.4-1
		C11.3,4,11,3.9,10.6,3.9z M10.6,6c-0.2,0-0.4-0.1-0.5-0.2C10,5.6,9.9,5.5,9.9,5.3s0.1-0.4,0.2-0.5c0.3-0.3,0.8-0.3,1,0
		c0.1,0.1,0.2,0.3,0.2,0.5c0,0.2-0.1,0.4-0.2,0.5h0C11,5.9,10.8,6,10.6,6z M10.6,4.7c-0.1,0-0.3,0.1-0.4,0.2s-0.2,0.2-0.2,0.4
		c0,0.1,0.1,0.3,0.2,0.4c0.2,0.2,0.5,0.2,0.7,0l0,0c0.1-0.1,0.2-0.2,0.2-0.4c0-0.1-0.1-0.3-0.2-0.4C10.9,4.8,10.7,4.7,10.6,4.7z"/>
</g>
</svg>
