<?xml version="1.0" encoding="utf-8"?>
<!-- Generator: Adobe Illustrator 21.1.0, SVG Export Plug-In . SVG Version: 6.00 Build 0)  -->
<svg version="1.1" id="Слой_1" xmlns="http://www.w3.org/2000/svg" xmlns:xlink="http://www.w3.org/1999/xlink" x="0px" y="0px"
	 viewBox="0 0 44 44" style="enable-background:new 0 0 44 44;" xml:space="preserve">
<style type="text/css">
	.st0{clip-path:url(#SVGID_2_);}
</style>
<g>
	<defs>
		<rect id="SVGID_1_" y="0" width="44" height="44"/>
	</defs>
	<clipPath id="SVGID_2_">
		<use xlink:href="#SVGID_1_"  style="overflow:visible;"/>
	</clipPath>
	<g class="st0">
		<path d="M15.3,17.8c0.3-0.3,0.3-0.9,0-1.2c-0.3-0.3-0.9-0.3-1.2,0c-0.3,0.3-0.3,0.9,0,1.2C14.4,18.1,14.9,18.1,15.3,17.8z"/>
		<path d="M23.8,19c1-1,1-2.6,0-3.6c-1-1-2.6-1-3.6,0c-1,1-1,2.6,0,3.6C21.1,20,22.8,20,23.8,19z M21.4,16.6c0.3-0.3,0.9-0.3,1.2,0
			c0.3,0.3,0.3,0.9,0,1.2c-0.3,0.3-0.9,0.3-1.2,0C21,17.4,21,16.9,21.4,16.6z"/>
		<path d="M20.1,25.1c-1,1-1,2.6,0,3.6c1,1,2.6,1,3.6,0c1-1,1-2.6,0-3.6C22.8,24.1,21.1,24.1,20.1,25.1z M22.6,27.5
			c-0.3,0.3-0.9,0.3-1.2,0c-0.3-0.3-0.3-0.9,0-1.2c0.3-0.3,0.9-0.3,1.2,0C22.9,26.6,22.9,27.2,22.6,27.5z"/>
		<path d="M15,23.4c0.1,0.5,0.5,0.8,1,0.7l12.2-2.4c0.5-0.1,0.8-0.5,0.7-1c-0.1-0.5-0.5-0.8-1-0.7l-12.2,2.4
			C15.3,22.5,15,23,15,23.4z"/>
		<path d="M26.1,4.9c-0.2,0-0.4,0.1-0.6,0.3l-9,9c-0.3,0.3-0.3,0.9,0,1.2c0.3,0.3,0.9,0.3,1.2,0l8.4-8.4l10.9,10.9L17.8,37.2
			L6.8,26.2l6-6c0.3-0.3,0.3-0.9,0-1.2c-0.3-0.3-0.9-0.3-1.2,0L5,25.6c-0.3,0.3-0.3,0.9,0,1.2L17.2,39c0.3,0.3,0.9,0.3,1.2,0
			l20.5-20.5c0.3-0.3,0.3-0.9,0-1.2L26.7,5.1C26.6,5,26.4,4.9,26.1,4.9z"/>
		<path d="M42.5,0.3l-3.7,3.7c-2.2-1.6-5.1-1.7-7.3-0.1l-3-3.1c0,0,0,0,0,0c-1-1-2.6-1-3.6,0L0.8,25c-1,1-1,2.6,0,3.6l3.4,3.4
			c-0.8,2.2-0.2,4.6,1.5,6.3c1.7,1.7,4.1,2.2,6.3,1.5l3.4,3.4c1,1,2.6,1,3.6,0l24.3-24.2c1-1,1-2.6,0-3.6c0,0,0,0,0,0l-3.1-3
			c1.6-2.1,1.6-5.1-0.1-7.3l3.7-3.7c0.3-0.3,0.3-0.9,0-1.2C43.4-0.1,42.9-0.1,42.5,0.3z M38.3,11.9c-0.2,0.2-0.3,0.4-0.3,0.6
			c0,0.2,0.1,0.4,0.3,0.6l3.7,3.6c0.3,0.3,0.3,0.9,0,1.2L17.8,42c-0.3,0.3-0.9,0.3-1.2,0l-3.8-3.8c-0.2-0.2-0.4-0.3-0.6-0.3
			c-0.1,0-0.2,0-0.4,0.1c-1.7,0.8-3.6,0.4-4.9-0.9c-1.3-1.3-1.7-3.3-0.9-4.9c0.2-0.3,0.1-0.7-0.2-1L2,27.4c-0.3-0.3-0.3-0.9,0-1.2
			L26.1,2c0.3-0.3,0.9-0.3,1.2,0l3.6,3.7c0.3,0.3,0.9,0.4,1.2,0c1.5-1.5,3.8-1.6,5.5-0.5l-1.3,1.3c-1-0.5-2.1-0.3-2.9,0.5
			c-1,1-1,2.6,0,3.6c1,1,2.6,1,3.6,0c0.8-0.8,1-2,0.5-2.9l1.3-1.3C40,8.1,39.8,10.4,38.3,11.9z M35.8,8.2c0.3,0.3,0.3,0.9,0,1.2
			c-0.3,0.3-0.9,0.3-1.2,0c-0.3-0.3-0.3-0.9,0-1.2C35,7.8,35.5,7.8,35.8,8.2z"/>
	</g>
</g>
</svg>
