<?xml version="1.0" encoding="utf-8"?>
<!-- Generator: Adobe Illustrator 21.1.0, SVG Export Plug-In . SVG Version: 6.00 Build 0)  -->
<svg version="1.1" id="Слой_1" xmlns="http://www.w3.org/2000/svg" xmlns:xlink="http://www.w3.org/1999/xlink" x="0px" y="0px"
	 viewBox="0 0 48 45.4" style="enable-background:new 0 0 48 45.4;" xml:space="preserve">
<g>
	<path d="M12.8,28.9c0.4-0.3,0.6-0.8,0.3-1.3c-0.3-0.4-0.8-0.6-1.3-0.3c-0.4,0.3-0.6,0.8-0.3,1.3C11.8,29,12.4,29.2,12.8,28.9z"/>
	<path d="M9,35.4l4.7,8.2c1,1.8,3.3,2.4,5.1,1.4c1.8-1,2.4-3.3,1.4-5.1l-2.8-4.9l2.4-1.4c0.4-0.3,0.6-0.8,0.3-1.3L19,30.1
		c0.1,0,1.1-0.2,18-3.5c2.1-0.1,3.3-2.4,2.3-4.2L36.1,17l2-3c0.2-0.3,0.2-0.7,0-1l-1.9-3.2c-0.2-0.3-0.5-0.5-0.9-0.5l-3.6,0.2
		l-3.5-6c-0.5-0.9-1.4-1.4-2.4-1.4c0,0,0,0,0,0c-1,0-1.8,0.5-2.4,1.3L11.2,19l-8,4.6c-3.1,1.8-4.2,5.8-2.4,9C2.5,35.4,6,36.6,9,35.4
		z M18.6,40.7c0.5,0.9,0.2,2-0.7,2.6c-0.9,0.5-2,0.2-2.6-0.7l-4.7-8.1l3.2-1.9C19.3,42,18.5,40.6,18.6,40.7z M16.5,33.3l-0.9-1.6
		l1.6-0.9l0.9,1.6L16.5,33.3z M34.9,11.2l1.3,2.2L35,15.2l-2.2-3.9L34.9,11.2z M25.1,4.4C25.3,4,25.7,4,25.9,4C26,4,26.4,4,26.7,4.4
		l10.9,18.9c0.4,0.6-0.1,1.4-0.8,1.4c-0.1,0-0.2,0-0.5,0.1l-11.5-20C25,4.5,25,4.5,25.1,4.4z M23.5,6.4l10.8,18.8L18,28.4l-5-8.6
		L23.5,6.4z M2.5,31.6c-0.4-0.7-0.6-1.5-0.6-2.3c0-1.7,0.9-3.2,2.3-4.1l7.3-4.2l4.7,8.1l-7.3,4.2C6.7,34.6,3.8,33.9,2.5,31.6z"/>
	<path d="M9.9,29.5c-0.3-0.4-0.8-0.6-1.3-0.3L7,30.1c-0.4,0.3-1,0.1-1.3-0.3c-0.3-0.4-0.8-0.6-1.3-0.3s-0.6,0.8-0.3,1.3
		c0.8,1.3,2.5,1.8,3.8,1l1.6-0.9C10,30.5,10.2,29.9,9.9,29.5z"/>
	<path d="M46.6,4.1L41.4,7c-0.5,0.3-0.6,0.8-0.4,1.3c0.3,0.5,0.8,0.6,1.3,0.4l5.2-2.9c0.5-0.3,0.6-0.8,0.4-1.3
		C47.6,4,47.1,3.8,46.6,4.1z"/>
	<path d="M46.1,13.8l-3.6-1c-0.5-0.1-1,0.2-1.1,0.7c-0.1,0.5,0.2,1,0.7,1.1l3.6,1c0.5,0.1,1-0.2,1.1-0.7
		C46.9,14.5,46.6,13.9,46.1,13.8z"/>
	<path d="M37,0.7l-1,3.6c-0.1,0.5,0.2,1,0.7,1.1c0.5,0.1,1-0.2,1.1-0.7l1-3.6c0.1-0.5-0.2-1-0.7-1.1C37.6-0.1,37.1,0.2,37,0.7z"/>
</g>
</svg>
