<?xml version="1.0" encoding="utf-8"?>
<!-- Generator: Adobe Illustrator 21.1.0, SVG Export Plug-In . SVG Version: 6.00 Build 0)  -->
<svg version="1.1" id="Слой_1" xmlns="http://www.w3.org/2000/svg" xmlns:xlink="http://www.w3.org/1999/xlink" x="0px" y="0px"
	 viewBox="0 0 33 20" style="enable-background:new 0 0 33 20;" xml:space="preserve">
<path d="M23.1,0c-2.5,0-4.9,1-6.6,2.6C14.7,1,12.4,0,9.9,0H9.8C4.4,0.1,0,4.5,0,10c0,5.5,4.4,10,9.9,10c2.5,0,4.8-1,6.6-2.6
	c-0.3-0.3-0.7-0.7-1-1.1h2c-0.3,0.4-0.6,0.8-1,1.1c1.8,1.6,4.1,2.6,6.6,2.6c5.5,0,9.9-4.5,9.9-10C33,4.5,28.6,0,23.1,0z M15.6,3.6
	h1.9c0.3,0.3,0.5,0.7,0.8,1.1h-3.3C15.1,4.3,15.3,3.9,15.6,3.6z M14.3,5.7h4.5c0.1,0.3,0.3,0.7,0.4,1.1h-5.5
	C13.8,6.7,14,6.3,14.3,5.7z M4,12.6l0.6-3.8l-1.4,3.8H2.6L2.5,8.8l-0.6,3.8H0.8l0.8-5.1h1.6l0.1,3.1l1-3.1h1.6l-0.8,5.1H4z
	 M7.6,12.6l0.1-0.4c0,0-0.3,0.5-1.1,0.5c-0.4,0-1-0.2-1-1.2c0-1.2,1-1.6,1.8-1.6c0.1,0,0.5,0,0.5,0S8,9.8,8,9.6
	c0-0.3-0.3-0.3-0.7-0.3c-0.7,0-1.2,0.2-1.2,0.2l0.1-0.9c0,0,0.5-0.2,1.3-0.2C7.9,8.3,9,8.4,9,9.7l-0.4,3L7.6,12.6L7.6,12.6z
	 M11.5,11.2c0,1.4-1.4,1.4-1.6,1.4c-0.9,0-1.2-0.1-1.2-0.1l0.1-1c0,0,0.4,0.1,1,0.1c0.3,0,0.7,0,0.7-0.3c0-0.5-1.3-0.4-1.3-1.6
	c0-1.1,0.8-1.4,1.6-1.4c0.6,0,1,0.1,1,0.1l-0.2,1c0,0-0.5-0.1-0.8-0.1c-0.3,0-0.5,0.1-0.5,0.3C10.3,10.2,11.5,9.9,11.5,11.2z
	 M13.2,11.6c0.1,0,0.2,0,0.3,0l-0.1,0.9c-0.1,0-0.4,0.1-0.8,0.1c-0.5,0-0.8-0.3-0.8-0.9c0-0.4,0.6-3.9,0.6-3.9h1l-0.1,0.6h0.5
	l-0.1,1h-0.5l-0.3,1.9C12.8,11.4,12.8,11.6,13.2,11.6z M15.5,8.3c1.2,0,1.5,0.8,1.5,1.6c0,0.3-0.1,1-0.1,1h-2.1c0,0-0.2,0.8,1,0.8
	c0.5,0,1.1-0.3,1.1-0.3l-0.2,1c0,0-0.3,0.2-1.1,0.2c-0.8,0-1.8-0.3-1.8-1.9C13.6,9.4,14.5,8.3,15.5,8.3z M18.3,15.3h-3.5
	c-0.2-0.3-0.4-0.7-0.6-1.1h4.6C18.7,14.6,18.5,15,18.3,15.3z M18,12.6h-1.1l0.7-4.1h1L18.5,9c0,0,0.3-0.6,0.8-0.6c0.1,0,0.2,0,0.2,0
	c-0.1,0.3-0.3,0.6-0.4,1.2C18.4,9.4,18.3,10.8,18,12.6z M22.2,12.5c0,0-0.5,0.1-1,0.1c-1.2,0-1.9-0.9-1.9-2.2c0-2,1.2-3,2.4-3
	c0.5,0,1.2,0.3,1.2,0.3l-0.2,1.1c0,0-0.4-0.3-1-0.3c-0.7,0-1.4,0.7-1.4,1.9c0,0.6,0.3,1.2,1,1.2c0.3,0,0.9-0.3,0.9-0.3L22.2,12.5z
	 M24.7,12.6l0.1-0.4c0,0-0.3,0.5-1.1,0.5c-0.4,0-1-0.2-1-1.2c0-1.2,1-1.6,1.8-1.6c0.1,0,0.5,0,0.5,0S25,9.8,25,9.6
	c0-0.3-0.3-0.3-0.7-0.3c-0.7,0-1.2,0.2-1.2,0.2l0.1-0.9c0,0,0.5-0.2,1.3-0.2C25,8.3,26,8.4,26,9.7l-0.4,3
	C25.6,12.6,24.7,12.6,24.7,12.6z M26.9,12.6h-1.1l0.7-4.1h1L27.3,9c0,0,0.3-0.6,0.8-0.6c0.1,0,0.2,0,0.2,0C28.2,8.7,28.1,9,28,9.7
	C27.2,9.4,27.2,10.8,26.9,12.6z M30.1,12.6l0.1-0.4c0,0-0.3,0.4-1,0.4c-0.9,0-1.3-0.8-1.3-1.7c0-1.4,0.8-2.6,1.8-2.6
	c0.6,0,1,0.6,1,0.6l0.2-1.4h1l-0.8,5L30.1,12.6z M32.2,12.4c0,0.1-0.1,0.1-0.1,0.1c-0.1,0-0.1,0.1-0.1,0.1c-0.1,0-0.1,0-0.1-0.1
	c-0.1,0-0.1-0.1-0.1-0.1c0-0.1-0.1-0.1-0.1-0.1c0-0.1,0-0.1,0.1-0.1c0.1,0,0.1-0.1,0.1-0.1c0.1,0,0.1-0.1,0.1-0.1
	c0.1,0,0.1,0,0.1,0.1c0.1,0,0.1,0.1,0.1,0.1c0,0.1,0.1,0.1,0.1,0.1S32.2,12.3,32.2,12.4z"/>
<path d="M32.1,15.4C32.1,15.4,32,15.4,32.1,15.4C32,15.4,32,15.4,32.1,15.4H32v0.1H32C32,15.5,32,15.5,32.1,15.4
	C32.1,15.5,32.1,15.5,32.1,15.4z"/>
<path d="M32.3,15.4c0-0.1-0.1-0.1-0.1-0.1c-0.1,0-0.1-0.1-0.1-0.1c-0.1,0-0.1,0-0.1,0.1c0,0.1-0.1,0.1-0.1,0.1
	c0,0.1-0.1,0.1-0.1,0.1c0,0.1,0,0.1,0.1,0.1c0,0.1,0.1,0.1,0.1,0.1c0.1,0,0.1,0.1,0.1,0.1c0.1,0,0.1,0,0.1-0.1
	c0.1,0,0.1-0.1,0.1-0.1c0-0.1,0.1-0.1,0.1-0.1S32.3,15.4,32.3,15.4z M32.1,15.7C32,15.7,32,15.6,32,15.6s0,0-0.1,0v0.1h-0.1v-0.3H32
	c0.1,0,0.1,0,0.1,0s0,0,0.1,0c0,0,0,0,0,0.1v0.1h-0.1C32.1,15.6,32.1,15.7,32.1,15.7L32.1,15.7L32.1,15.7z"/>
<path d="M7.5,10.7c-0.8,0-1,0.3-1,0.6c0,0.1,0.1,0.4,0.4,0.4c0.6,0,0.8-0.8,0.8-1C7.7,10.7,7.7,10.7,7.5,10.7z"/>
<path d="M15.5,9.2c-0.5,0-0.7,0.7-0.7,0.8H16C16,9.9,16.1,9.2,15.5,9.2z"/>
<path d="M29.8,9.4c-0.5,0-0.8,0.6-0.8,1.4c0,0.5,0.2,0.8,0.5,0.8c0.5,0,0.8-0.8,0.8-1.3C30.3,9.7,30.2,9.4,29.8,9.4z"/>
<path d="M32.1,12.1C32.1,12.1,32,12.1,32.1,12.1C32,12.1,32,12,31.9,12c-0.1,0-0.1,0-0.1,0.1c-0.1,0-0.1,0.1-0.1,0.1
	s-0.1,0.1-0.1,0.1c0,0.1,0,0.1,0.1,0.1c0,0.1,0.1,0.1,0.1,0.1c0.1,0,0.1,0.1,0.1,0.1c0.1,0,0.1,0,0.1-0.1c0.1,0,0.1-0.1,0.1-0.1
	c0-0.1,0.1-0.1,0.1-0.1C32.2,12.2,32.2,12.1,32.1,12.1z M32,12.4c-0.1-0.1-0.1-0.1-0.1-0.1s0,0-0.1,0v0.1h-0.1v-0.3h0.1
	c0.1,0,0.1,0,0.1,0s0,0,0.1,0c0,0,0,0,0,0.1v0.1H32C32,12.3,32,12.3,32,12.4C32,12.4,32,12.4,32,12.4z"/>
<path d="M24.5,10.7c-0.8,0-1,0.3-1,0.6c0,0.1,0.1,0.4,0.4,0.4c0.6,0,0.8-0.8,0.8-1C24.8,10.7,24.8,10.7,24.5,10.7z"/>
<path d="M32,12.1C32,12.1,31.9,12.1,32,12.1C31.9,12.1,31.9,12.1,32,12.1h-0.1v0.1h0.1C31.9,12.2,31.9,12.2,32,12.1
	C32,12.2,32,12.2,32,12.1z"/>
</svg>
