<?xml version="1.0" encoding="utf-8"?>
<!-- Generator: Adobe Illustrator 21.1.0, SVG Export Plug-In . SVG Version: 6.00 Build 0)  -->
<svg version="1.1" id="Слой_1" xmlns="http://www.w3.org/2000/svg" xmlns:xlink="http://www.w3.org/1999/xlink" x="0px" y="0px"
	 viewBox="0 0 24 23.1" style="enable-background:new 0 0 24 23.1;" xml:space="preserve">
<path d="M23.7,4.3L12.2,0c-0.1,0-0.2,0-0.3,0L0.3,4.3l0,0c0,0-0.1,0-0.1,0.1C0.1,4.4,0,4.6,0,4.7v13.7c0,0.2,0.1,0.4,0.3,0.4
	l11.5,4.3c0.1,0,0.1,0,0.2,0c0.1,0,0.1,0,0.2,0l0,0l11.5-4.3c0.2-0.1,0.3-0.2,0.3-0.4V4.7C24,4.5,23.9,4.4,23.7,4.3z M11.5,22
	L1,18.1V5.4l2.2,0.8V12c0,0.2,0.1,0.4,0.3,0.4l5.2,1.9c0.1,0,0.1,0,0.2,0c0.1,0,0.2,0,0.3-0.1c0.1-0.1,0.2-0.2,0.2-0.4V8.5l2.3,0.8
	L11.5,22L11.5,22z M8.3,8.1v5.1l-4.2-1.6V6.6L8.3,8.1z M5,5.9l3.8-1.4l3.8,1.4L8.7,7.3L5,5.9z M12,8.5l-1.9-0.7l4-1.5
	c0.2-0.1,0.3-0.2,0.3-0.4c0-0.2-0.1-0.4-0.3-0.4L8.9,3.5c-0.1,0-0.2,0-0.3,0l-5,1.8L1.9,4.7L12,1l10.1,3.7L12,8.5z M23,18.1L12.5,22
	V9.3L23,5.4V18.1z"/>
</svg>
