<?xml version="1.0" encoding="utf-8"?>
<!-- Generator: Adobe Illustrator 21.1.0, SVG Export Plug-In . SVG Version: 6.00 Build 0)  -->
<svg version="1.1" id="Слой_1" xmlns="http://www.w3.org/2000/svg" xmlns:xlink="http://www.w3.org/1999/xlink" x="0px" y="0px"
	 viewBox="0 0 19.4 22.3" style="enable-background:new 0 0 19.4 22.3;" xml:space="preserve">
<g>
	<path d="M18.5,3.9l-6.7-3.6C11.2,0,10.3,0.2,9.9,0.9L6,8.2H1.2c-0.6,0-1.1,0.5-1.1,1.1v1.9v9.9c0,0.6,0.5,1.1,1.1,1.1h15.3
		c0.6,0,1.1-0.5,1.1-1.1v-2.8H18c0.2,0,0.4-0.2,0.4-0.4v-3.2c0-0.2-0.2-0.4-0.4-0.4h-0.5v-3.1c0-0.5-0.4-1-0.8-1.1l2.3-4.3
		C19.4,5.1,19.2,4.3,18.5,3.9z M13.7,2.3l-4.2,7.8H8.4l4.5-8.3L13.7,2.3z M10.7,1.3C10.8,1,11.2,0.9,11.4,1l0.7,0.4l-4.7,8.7H5.9
		L10.7,1.3z M1,9.2C1,9.1,1.1,9,1.2,9h4.3L5,10.1H1.2c-0.1,0-0.2,0-0.2,0V9.2z M16.7,21.1c0,0.1-0.1,0.2-0.2,0.2H1.2
		c-0.1,0-0.2-0.1-0.2-0.2v-9.9c0-0.1,0.1-0.2,0.2-0.2h4h1.7H10h6h0.5c0.1,0,0.2,0.1,0.2,0.2v3.1h-1.6c-0.7,0-1.3,0.6-1.3,1.3V17
		c0,0.7,0.6,1.3,1.3,1.3h1.6V21.1z M17.6,15.1L17.6,15.1l0,2.3h0h-2.5c-0.2,0-0.4-0.2-0.4-0.4v-1.5c0-0.2,0.2-0.4,0.4-0.4H17.6z
		 M18.3,5.4l-2.5,4.7h-5.3l4-7.4l3.6,2C18.4,4.8,18.4,5.1,18.3,5.4z"/>
	<path d="M16.5,22.3H1.2c-0.7,0-1.2-0.5-1.2-1.2V9.2C0,8.6,0.5,8,1.2,8h4.7l3.9-7.2c0.4-0.7,1.4-1,2.1-0.6l6.7,3.6
		c0.7,0.4,1,1.3,0.6,2.1L17,10c0.5,0.2,0.8,0.6,0.8,1.1v3H18c0.3,0,0.6,0.3,0.6,0.6v3.2c0,0.3-0.3,0.6-0.6,0.6h-0.3v2.6
		C17.7,21.8,17.2,22.3,16.5,22.3z M1.2,8.3c-0.5,0-0.9,0.4-0.9,0.9v11.8c0,0.5,0.4,0.9,0.9,0.9h15.3c0.5,0,0.9-0.4,0.9-0.9v-2.9H18
		c0.2,0,0.3-0.1,0.3-0.3v-3.2c0-0.2-0.1-0.3-0.3-0.3h-0.6v-3.3c0-0.4-0.3-0.8-0.7-0.9l-0.2,0l2.4-4.5c0.3-0.6,0.1-1.3-0.5-1.7
		l-6.7-3.6c-0.6-0.3-1.4-0.1-1.7,0.5l-4,7.4H1.2z M16.5,21.5H1.2c-0.2,0-0.4-0.2-0.4-0.4v-9.9c0-0.2,0.2-0.4,0.4-0.4h15.2
		c0.2,0,0.4,0.2,0.4,0.4v3.3h-1.8c-0.6,0-1.1,0.5-1.1,1.1V17c0,0.6,0.5,1.1,1.1,1.1h1.8v2.9C16.9,21.3,16.7,21.5,16.5,21.5z
		 M1.2,11.1C1.2,11.1,1.1,11.1,1.2,11.1l-0.1,10c0,0,0,0.1,0.1,0.1h15.3c0,0,0.1,0,0.1-0.1v-2.6h-1.5c-0.8,0-1.4-0.6-1.4-1.4v-1.5
		c0-0.8,0.6-1.4,1.4-1.4h1.5v-3c0,0,0-0.1-0.1-0.1H1.2z M17.7,17.6h-2.7c-0.3,0-0.6-0.3-0.6-0.6v-1.5c0-0.3,0.3-0.6,0.6-0.6h2.7
		V17.6z M15.1,15.3c-0.2,0-0.3,0.1-0.3,0.3V17c0,0.2,0.1,0.3,0.3,0.3h2.4v-2H15.1z M0.8,10.3V9.2c0-0.2,0.2-0.4,0.4-0.4h4.6L5,10.2
		H1.2c-0.1,0-0.1,0-0.2,0L0.8,10.3z M1.1,9.2v0.7c0,0,0.1,0,0.1,0h3.7l0.4-0.8L1.1,9.2C1.2,9.2,1.1,9.2,1.1,9.2z M15.8,10.2h-5.6
		l4.2-7.7l3.7,2c0.1,0.1,0.3,0.2,0.3,0.3c0.1,0.2,0,0.4,0,0.5L15.8,10.2z M10.8,9.9h4.9l2.5-4.6c0-0.1,0.1-0.2,0-0.3
		c0-0.1-0.1-0.1-0.2-0.2l-3.5-1.9L10.8,9.9z M9.6,10.2H8.1l4.7-8.6l1.2,0.6l-0.1,0.1L9.6,10.2z M8.6,9.9h0.9l4.1-7.6L12.9,2L8.6,9.9
		z M7.5,10.2H5.7l4.9-9.1c0.2-0.3,0.6-0.4,0.9-0.3l0.8,0.4l-0.1,0.1L7.5,10.2z M6.2,9.9h1.1l4.6-8.5l-0.5-0.3
		c-0.2-0.1-0.4,0-0.5,0.2L6.2,9.9z"/>
</g>
</svg>
