<?xml version="1.0" encoding="utf-8"?>
<!-- Generator: Adobe Illustrator 21.1.0, SVG Export Plug-In . SVG Version: 6.00 Build 0)  -->
<svg version="1.1" id="Слой_1" xmlns="http://www.w3.org/2000/svg" xmlns:xlink="http://www.w3.org/1999/xlink" x="0px" y="0px"
	 viewBox="0 0 20.2 21.9" style="enable-background:new 0 0 20.2 21.9;" xml:space="preserve">
<g>
	<path d="M18.5,4.3h-2.3c0.3-0.4,0.4-0.9,0.4-1.5c0-1.5-1.2-2.8-2.8-2.8c-1,0-1.9,0.5-2.4,1.4C11,1.1,10.5,0.9,9.9,0.9
		S8.9,1,8.5,1.4C8.1,0.5,7.2,0,6.2,0C4.7,0,3.4,1.2,3.4,2.8c0,0.6,0.2,1.1,0.4,1.5H1.5C0.7,4.3,0,4.9,0,5.8V8c0,0.6,0.3,1.1,0.8,1.3
		v10.4c0,1.2,1,2.2,2.2,2.2h14.2c1.2,0,2.2-1,2.2-2.2V9.3C19.9,9,20.2,8.5,20.2,8V5.8C20,4.9,19.3,4.3,18.5,4.3z M12.3,2.8
		c0-0.8,0.7-1.5,1.5-1.5s1.5,0.7,1.5,1.5s-0.7,1.5-1.5,1.5h-1.5V2.8z M13,5.5l1.9,3.4l-0.5-0.1c-0.2,0-0.3,0-0.5,0.1
		c-0.1,0.1-0.3,0.2-0.3,0.4l-0.1,0.4l-2.3-4.1L13,5.5L13,5.5z M10,2.1c0.6,0,1.1,0.5,1.1,1.1S10.6,4.3,10,4.3
		C9.4,4.2,8.9,3.8,8.9,3.2S9.4,2.1,10,2.1z M8.8,5.5L6.9,8.9L6.8,8.5c0-0.2-0.1-0.3-0.3-0.4C6.3,8,6.1,8,6,8L5.5,8.1L7,5.5H8.8z
		 M6.2,1.3C7,1.3,7.7,2,7.7,2.8v1.5H6.2c-0.8,0-1.5-0.7-1.5-1.5S5.4,1.3,6.2,1.3z M1.3,8V5.8c0-0.1,0.1-0.3,0.3-0.3h4.1L4,8.2H1.5
		C1.4,8.2,1.3,8.1,1.3,8z M11.1,20.6H2.9c-0.5,0-0.9-0.4-0.9-0.9V9.5h1.7l0,0c0.2,0.2,0.5,0.3,0.7,0.3l1.3-0.3L6,10.8
		c0.1,0.2,0.3,0.4,0.5,0.5h0.1c0.2,0,0.4-0.1,0.5-0.3l0.4-0.7v6.4c0,0.3,0.3,0.6,0.6,0.6c0.5-0.1,0.8-0.4,0.8-0.7V9.5h2.3L11.1,20.6
		L11.1,20.6z M8.7,8.3L10,5.9l1.3,2.3L8.7,8.3L8.7,8.3z M18,19.7c0,0.5-0.4,0.9-0.9,0.9h-4.7V10.2l0.8,1.5c0.1,0.2,0.3,0.3,0.6,0.3
		h0.1c0.3,0,0.5-0.2,0.5-0.5l0.3-1.3l1.3,0.3c0.2,0.1,0.5,0,0.7-0.2s0.2-0.5,0-0.7l-0.1-0.1h1.3L18,19.7L18,19.7z M18.7,8
		c0,0.1-0.1,0.3-0.3,0.3h-2.5l-1.5-2.7h4c0.1,0,0.3,0.1,0.3,0.3V8z"/>
</g>
</svg>
