<?xml version="1.0" encoding="utf-8"?>
<!-- Generator: Adobe Illustrator 21.1.0, SVG Export Plug-In . SVG Version: 6.00 Build 0)  -->
<svg version="1.1" id="Слой_1" xmlns="http://www.w3.org/2000/svg" xmlns:xlink="http://www.w3.org/1999/xlink" x="0px" y="0px"
	 viewBox="0 0 18.6 21.3" style="enable-background:new 0 0 18.6 21.3;" xml:space="preserve">
<g>
	<path d="M13.7,14.5c0,0.3,0.2,0.5,0.5,0.5c0.3,0,0.5-0.2,0.5-0.5S14.5,14,14.2,14C13.9,14,13.7,14.2,13.7,14.5z"/>
	<path d="M17.6,14.3c0,0.3,0.2,0.5,0.5,0.5s0.5-0.2,0.5-0.5v-3.2c0-1.7-1.4-3.1-3.1-3.1h-1.4V4.7c0-2.6-2.2-4.7-4.8-4.7
		C6.6,0,4.5,2.1,4.5,4.7v3.4H3.1C1.4,8.1,0,9.5,0,11.2v7c0,1.7,1.4,3.1,3.1,3.1h12.4c1.7,0,3.1-1.4,3.1-3.1c0-0.3-0.2-0.5-0.5-0.5
		s-0.5,0.2-0.5,0.5c0,1.1-0.9,2.1-2.1,2.1H3.1C2,20.3,1,19.4,1,18.2v-7c0-1.1,0.9-2.1,2.1-2.1h12.4c1.1,0,2.1,0.9,2.1,2.1V14.3z
		 M13.1,8.1H5.5V4.7c0-2,1.7-3.7,3.8-3.7s3.8,1.7,3.8,3.7V8.1z"/>
	<path d="M7.2,14.5c0,0.3,0.2,0.5,0.5,0.5c0.3,0,0.5-0.2,0.5-0.5S8,14,7.7,14C7.4,14,7.2,14.2,7.2,14.5z"/>
	<path d="M4,14.5C4,14.8,4.2,15,4.5,15S5,14.8,5,14.5S4.7,14,4.5,14C4.2,14,4,14.2,4,14.5z"/>
	<path d="M10.4,14.5c0,0.3,0.2,0.5,0.5,0.5c0.3,0,0.5-0.2,0.5-0.5S11.2,14,10.9,14C10.6,14,10.4,14.2,10.4,14.5z"/>
</g>
</svg>
