<?xml version="1.0" encoding="utf-8"?>
<!-- Generator: Adobe Illustrator 21.1.0, SVG Export Plug-In . SVG Version: 6.00 Build 0)  -->
<svg version="1.1" id="Слой_1" xmlns="http://www.w3.org/2000/svg" xmlns:xlink="http://www.w3.org/1999/xlink" x="0px" y="0px"
	 viewBox="0 0 21 21.3" style="enable-background:new 0 0 21 21.3;" xml:space="preserve">
<style type="text/css">
	.st0{clip-path:url(#SVGID_2_);}
</style>
<g>
	<defs>
		<rect id="SVGID_1_" width="21" height="21.3"/>
	</defs>
	<clipPath id="SVGID_2_">
		<use xlink:href="#SVGID_1_"  style="overflow:visible;"/>
	</clipPath>
	<g class="st0">
		<path d="M14.3,6.5c-0.2,0-0.4,0.2-0.4,0.4c0,0.2,0.2,0.4,0.4,0.4c0.2,0,0.4-0.2,0.4-0.4C14.7,6.6,14.5,6.5,14.3,6.5z"/>
		<path d="M6.8,14c-0.2,0-0.4,0.2-0.4,0.4c0,0.2,0.2,0.4,0.4,0.4c0.2,0,0.4-0.2,0.4-0.4C7.2,14.2,7,14,6.8,14z"/>
		<path d="M20.6,2.6c-0.1,0-0.3,0-0.4,0.1l-1.7,1.7h-0.8l-0.9-0.9V2.6l1.7-1.7c0.1-0.1,0.1-0.2,0.1-0.4c0-0.1-0.1-0.3-0.3-0.3
			C17.8,0.1,17.4,0,17,0c-1.3,0-2.6,0.6-3.3,1.7c-0.7,1-1,2.3-0.6,3.5l-3,3.1l-5-5.1v-1c0-0.1-0.1-0.3-0.2-0.4L1.8,0.1
			C1.6,0,1.4,0,1.3,0.1L0.1,1.3C0,1.4,0,1.6,0.1,1.8l1.7,2.9C1.9,4.9,2,5,2.2,5l1,0l5,5.1l-3,3.1C4,12.8,2.8,13,1.7,13.8
			c-1.1,0.8-1.7,2-1.7,3.4c0,0.5,0.1,0.9,0.2,1.3c0,0.1,0.2,0.2,0.3,0.3c0.1,0,0.3,0,0.4-0.1l1.7-1.7h0.8l0.9,0.9v0.8l-1.7,1.7
			c-0.1,0.1-0.1,0.2-0.1,0.4c0,0.1,0.1,0.3,0.3,0.3c0.4,0.1,0.9,0.2,1.3,0.2c1.3,0,2.6-0.6,3.3-1.7c0.7-1,1-2.3,0.6-3.5l2.4-2.5
			l0.6,0.6l-0.3,0.3c-0.2,0.2-0.2,0.4,0,0.6c0.2,0.2,0.4,0.2,0.6,0l0.2-0.2l5.2,5.7c0,0,0,0,0,0c1,1,2.5,1,3.5,0c1-1,1-2.6,0-3.5
			c0,0,0,0,0,0l-5.7-5.3l0.2-0.2c0.2-0.2,0.2-0.4,0-0.6c-0.2-0.2-0.4-0.2-0.6,0l-0.3,0.3l-0.6-0.6l2.4-2.5c0.3,0.1,0.7,0.1,1.1,0.1
			c2.3,0,4.1-1.9,4.1-4.2c0-0.5-0.1-0.9-0.2-1.3C20.8,2.7,20.7,2.6,20.6,2.6z M3.6,4.2C3.6,4.2,3.4,4.1,3.3,4.1l-0.9,0L1,1.7
			l0.7-0.7l2.4,1.5v0.9c0,0.1,0,0.2,0.1,0.3l5.2,5.2L8.8,9.5L3.6,4.2z M14.1,12.4l5.7,5.3c0.6,0.6,0.6,1.7,0,2.3
			c-0.6,0.6-1.7,0.7-2.3,0l-5.2-5.7L14.1,12.4z M13.5,11.8l-1.8,1.8L11.1,13l1.8-1.8L13.5,11.8z M17,7.5c-0.4,0-0.7-0.1-1.1-0.2
			c-0.1-0.1-0.3,0-0.4,0.1C13.4,9.5,9,14,7.3,15.7c-0.1,0.1-0.1,0.3-0.1,0.4c0.3,1,0.2,2.1-0.4,3c-0.6,0.9-1.6,1.4-2.7,1.4
			c-0.1,0-0.2,0-0.4,0l1.3-1.3c0.1-0.1,0.1-0.2,0.1-0.3v-1.2c0-0.1,0-0.2-0.1-0.3l-1.2-1.2c-0.1-0.1-0.2-0.1-0.3-0.1H2.4
			c-0.1,0-0.2,0-0.3,0.1l-1.3,1.3c0-0.1,0-0.2,0-0.4c0-1.1,0.5-2.1,1.4-2.7c0.9-0.6,2-0.8,3-0.5c0.1,0.1,0.3,0,0.4-0.1
			c0,0,8.1-8.2,8.1-8.2c0.1-0.1,0.1-0.3,0.1-0.4c-0.3-1-0.2-2.1,0.4-3c0.6-0.9,1.6-1.4,2.7-1.4c0.1,0,0.2,0,0.4,0L16,2.2
			c-0.1,0.1-0.1,0.2-0.1,0.3v1.2c0,0.1,0,0.2,0.1,0.3l1.1,1.2c0.1,0.1,0.2,0.1,0.3,0.1h1.2c0.1,0,0.2,0,0.3-0.1l1.3-1.3
			c0,0.1,0,0.2,0,0.4C20.2,6,18.8,7.5,17,7.5z"/>
		<path d="M12.8,7.8L7.7,13c-0.2,0.2-0.2,0.4,0,0.6c0.2,0.2,0.4,0.2,0.6,0l5.1-5.2c0.2-0.2,0.2-0.4,0-0.6C13.2,7.6,13,7.6,12.8,7.8z
			"/>
		<path d="M18,18.8c0.2,0.2,0.4,0.2,0.6,0c0.2-0.2,0.2-0.4,0-0.6l-3.7-3.7c-0.2-0.2-0.4-0.2-0.6,0c-0.2,0.2-0.2,0.4,0,0.6L18,18.8z"
			/>
	</g>
</g>
</svg>
