<?xml version="1.0" encoding="utf-8"?>
<!-- Generator: Adobe Illustrator 21.1.0, SVG Export Plug-In . SVG Version: 6.00 Build 0)  -->
<svg version="1.1" id="Слой_1" xmlns="http://www.w3.org/2000/svg" xmlns:xlink="http://www.w3.org/1999/xlink" x="0px" y="0px"
	 viewBox="0 0 21.1 15.6" style="enable-background:new 0 0 21.1 15.6;" xml:space="preserve">
<path d="M10.7,4.5c-2.7,0-5.2,1-7.1,2.9c-0.3,0.3-0.3,0.7,0,1c0.3,0.3,0.7,0.3,1,0c1.7-1.6,3.9-2.5,6.1-2.5s4.4,0.8,6.1,2.5
	c0.3,0.3,0.7,0.3,1,0c0.3-0.3,0.3-0.7,0-1C15.9,5.5,13.4,4.5,10.7,4.5z"/>
<path d="M10.6,9c-1.5,0-2.9,0.6-3.9,1.6c-0.3,0.3-0.3,0.7,0,1c0.3,0.3,0.7,0.3,1,0c0.8-0.7,1.9-1.2,2.9-1.2c1.1,0,2.1,0.4,2.9,1.2
	c0.3,0.3,0.8,0.3,1,0c0.1-0.1,0.2-0.3,0.2-0.5c0-0.2-0.1-0.4-0.2-0.5C13.5,9.6,12.1,9,10.6,9z"/>
<circle cx="10.7" cy="14.5" r="1.1"/>
<path d="M0.2,4.3c-0.3,0.3-0.3,0.7,0,1s0.7,0.3,1,0c2.6-2.6,5.9-3.9,9.4-3.9s6.8,1.4,9.3,3.9c0.3,0.3,0.8,0.3,1,0
	c0.3-0.3,0.3-0.7,0-1C15.2-1.4,5.9-1.4,0.2,4.3z"/>
</svg>
