<?xml version="1.0" encoding="utf-8"?>
<!-- Generator: Adobe Illustrator 21.1.0, SVG Export Plug-In . SVG Version: 6.00 Build 0)  -->
<svg version="1.1" id="Слой_1" xmlns="http://www.w3.org/2000/svg" xmlns:xlink="http://www.w3.org/1999/xlink" x="0px" y="0px"
	 viewBox="0 0 14 13" style="enable-background:new 0 0 14 13;" xml:space="preserve">
<style type="text/css">
	.st0{fill:#C4C4C4;filter:url(#Adobe_OpacityMaskFilter);}
	.st1{mask:url(#mask0);}
	.st2{fill:#FFA800;}
	.st3{fill:#E5E5E5;}
</style>
<defs>
	<filter id="Adobe_OpacityMaskFilter" filterUnits="userSpaceOnUse" x="0" y="0" width="14" height="13">
		<feColorMatrix  type="matrix" values="1 0 0 0 0  0 1 0 0 0  0 0 1 0 0  0 0 0 1 0"/>
	</filter>
</defs>
<mask maskUnits="userSpaceOnUse" x="0" y="0" width="14" height="13" id="mask0">
	<path class="st0" d="M6.1,0.8c0.4-0.7,1.4-0.7,1.8,0l1.2,2.5c0.1,0.3,0.4,0.5,0.8,0.5l2.7,0.4c0.8,0.1,1.1,1.1,0.6,1.7l-2,1.9
		c-0.2,0.2-0.3,0.6-0.3,0.9l0.5,2.7c0.1,0.8-0.7,1.4-1.5,1.1l-2.4-1.3c-0.3-0.2-0.6-0.2-0.9,0l-2.4,1.3c-0.7,0.4-1.6-0.2-1.5-1.1
		l0.5-2.7c0.1-0.3-0.1-0.7-0.3-0.9l-2-1.9C0.2,5.4,0.6,4.4,1.4,4.2l2.7-0.4c0.3,0,0.6-0.3,0.8-0.5L6.1,0.8z"/>
</mask>
<g class="st1">
	<rect class="st2" width="7" height="13"/>
	<rect x="7" class="st3" width="7" height="13"/>
</g>
</svg>
