<svg width="90" height="38" viewBox="0 0 90 38" fill="none" xmlns="http://www.w3.org/2000/svg">
<g clip-path="url(#clip0)">
<path d="M18.4467 0C8.28253 0 0 8.43337 0 18.7826C0 29.1318 8.28253 37.5652 18.4467 37.5652C28.6108 37.5652 36.8933 29.1318 36.8933 18.7826C36.8933 8.43337 28.6284 0 18.4467 0ZM18.4467 29.4362C12.6788 29.4362 7.98358 24.6555 7.98358 18.7826C7.98358 12.9097 12.6788 8.12898 18.4467 8.12898C24.2145 8.12898 28.9097 12.9097 28.9097 18.7826C28.9097 24.6555 24.2145 29.4362 18.4467 29.4362Z" fill="url(#paint0_linear)"/>
<path d="M90.0001 0H82.0165V37.5652H90.0001V0Z" fill="url(#paint1_linear)"/>
<path d="M48.9918 18.7826C48.9918 12.9097 53.687 8.12898 59.4548 8.12898C65.2227 8.12898 69.9179 12.9097 69.9179 18.7826C69.9179 22.0951 68.4056 25.0315 66.0844 26.9832L71.6061 32.8561C75.4572 29.4183 77.9015 24.3869 77.9015 18.7826C77.9015 8.43337 69.6366 0 59.4548 0C49.2731 0 41.0082 8.43337 41.0082 18.7826C41.0082 29.1318 49.2907 37.5652 59.4548 37.5652C61.6354 37.5652 63.728 37.1534 65.6799 36.4372L59.1031 29.4362C53.4935 29.2393 48.9918 24.5481 48.9918 18.7826Z" fill="url(#paint2_linear)"/>
<path d="M69.4783 34.5393C70.2345 34.038 70.9379 33.465 71.6061 32.8741L66.0844 27.0012C65.17 27.7532 64.15 28.3799 63.0422 28.8096C62.0223 29.1857 60.9496 29.4005 59.8065 29.4542C59.6835 29.4542 59.5779 29.4721 59.4548 29.4721C59.3318 29.4721 59.2262 29.4542 59.1031 29.4542L65.6799 36.4552C65.8382 36.4015 65.9965 36.3478 66.1547 36.294C67.3153 35.8106 68.4232 35.2197 69.4783 34.5393Z" fill="#6459D6"/>
<path d="M77.9015 37.5651H68.6342L54.6366 22.668H63.9215L77.9015 37.5651Z" fill="url(#paint3_linear)"/>
</g>
<defs>
<linearGradient id="paint0_linear" x1="-5.84646" y1="9.24239" x2="86.8959" y2="44.3746" gradientUnits="userSpaceOnUse">
<stop stop-color="#8C9DFF"/>
<stop offset="1" stop-color="#776AFF"/>
</linearGradient>
<linearGradient id="paint1_linear" x1="2.90324" y1="-13.8546" x2="95.6455" y2="21.2775" gradientUnits="userSpaceOnUse">
<stop stop-color="#8C9DFF"/>
<stop offset="1" stop-color="#776AFF"/>
</linearGradient>
<linearGradient id="paint2_linear" x1="-0.535482" y1="-4.77767" x2="92.2069" y2="30.3546" gradientUnits="userSpaceOnUse">
<stop stop-color="#8C9DFF"/>
<stop offset="1" stop-color="#776AFF"/>
</linearGradient>
<linearGradient id="paint3_linear" x1="54.0536" y1="22.0238" x2="78.1054" y2="37.3836" gradientUnits="userSpaceOnUse">
<stop stop-color="#88FA63"/>
<stop offset="1" stop-color="#00C500"/>
</linearGradient>
<clipPath id="clip0">
<rect width="90" height="37.5652" fill="white"/>
</clipPath>
</defs>
</svg>
