<svg width="378" height="155" viewBox="0 0 378 155" fill="none" xmlns="http://www.w3.org/2000/svg">
<g opacity="0.2">
<path d="M0.5 77.3727C0.5 35.0069 34.336 0.5 75.8363 0.5C117.409 0.5 151.173 35.0066 151.173 77.3727C151.173 119.738 117.337 154.245 75.8363 154.245C34.336 154.245 0.5 119.738 0.5 77.3727ZM32.3214 77.3727C32.3214 101.832 51.8383 121.759 75.8363 121.759C99.8342 121.759 119.351 101.832 119.351 77.3727C119.351 52.9132 99.8342 32.9864 75.8363 32.9864C51.8383 32.9864 32.3214 52.9132 32.3214 77.3727Z" stroke="#1E1E1E"/>
<path d="M345.679 154.245V0.5L377.5 0.5V154.245H345.679Z" stroke="#1E1E1E"/>
<mask id="path-3-inside-1" fill="white">
<path fill-rule="evenodd" clip-rule="evenodd" d="M209.411 77.3727C209.411 53.1799 228.713 33.4864 252.426 33.4864C276.138 33.4864 295.44 53.1799 295.44 77.3727C295.44 88.9554 290.961 99.422 283.77 107.239L270.788 93.3778H232.617L258.423 120.898C256.936 121.115 255.419 121.259 253.872 121.332C253.619 121.332 253.384 121.351 253.149 121.369C252.914 121.388 252.679 121.406 252.426 121.406C252.173 121.406 251.938 121.388 251.703 121.369C251.489 121.352 251.276 121.336 251.049 121.333L250.98 121.259C227.918 120.448 209.411 101.123 209.411 77.3727ZM283.692 147.845C282.467 148.429 281.226 148.984 279.97 149.508L278.018 150.172L277.967 150.117C269.957 153.056 261.371 154.745 252.426 154.745C210.64 154.745 176.589 120.005 176.589 77.3727C176.589 34.7402 210.567 0 252.426 0C294.284 0 328.262 34.7402 328.262 77.3727C328.262 98.4196 319.91 117.505 306.438 131.443L328.262 154.745H290.163L283.692 147.845Z"/>
</mask>
<path d="M283.77 107.239L283.04 107.922L283.776 108.709L284.506 107.916L283.77 107.239ZM270.788 93.3778L271.518 92.6943L271.222 92.3778H270.788V93.3778ZM232.617 93.3778V92.3778H230.309L231.888 94.0619L232.617 93.3778ZM258.423 120.898L258.568 121.887L260.463 121.611L259.153 120.214L258.423 120.898ZM253.872 121.332V122.332H253.895L253.919 122.331L253.872 121.332ZM251.703 121.369L251.625 122.366H251.625L251.703 121.369ZM251.049 121.333L250.319 122.017L250.611 122.327L251.036 122.333L251.049 121.333ZM250.98 121.259L251.709 120.575L251.427 120.274L251.015 120.26L250.98 121.259ZM283.692 147.845L284.422 147.161L283.922 146.628L283.262 146.942L283.692 147.845ZM279.97 149.508L280.292 150.455L280.324 150.444L280.355 150.431L279.97 149.508ZM278.018 150.172L277.288 150.856L277.729 151.326L278.34 151.118L278.018 150.172ZM277.967 150.117L278.696 149.433L278.244 148.95L277.622 149.178L277.967 150.117ZM306.438 131.443L305.719 130.748L305.058 131.432L305.708 132.126L306.438 131.443ZM328.262 154.745V155.745H330.569L328.992 154.061L328.262 154.745ZM290.163 154.745L289.434 155.429L289.73 155.745H290.163V154.745ZM252.426 32.4864C228.142 32.4864 208.411 52.6466 208.411 77.3727H210.411C210.411 53.7132 229.284 34.4864 252.426 34.4864V32.4864ZM296.44 77.3727C296.44 52.6466 276.709 32.4864 252.426 32.4864V34.4864C275.567 34.4864 294.44 53.7132 294.44 77.3727H296.44ZM284.506 107.916C291.858 99.9241 296.44 89.2189 296.44 77.3727H294.44C294.44 88.6918 290.064 98.92 283.034 106.562L284.506 107.916ZM270.058 94.0614L283.04 107.922L284.5 106.555L271.518 92.6943L270.058 94.0614ZM232.617 94.3778H270.788V92.3778H232.617V94.3778ZM259.153 120.214L233.347 92.6938L231.888 94.0619L257.694 121.582L259.153 120.214ZM253.919 122.331C255.498 122.257 257.047 122.109 258.568 121.887L258.279 119.908C256.825 120.12 255.341 120.262 253.825 120.333L253.919 122.331ZM253.227 122.366C253.466 122.347 253.664 122.332 253.872 122.332V120.332C253.574 120.332 253.301 120.354 253.07 120.372L253.227 122.366ZM252.426 122.406C252.724 122.406 252.996 122.384 253.227 122.366L253.07 120.372C252.831 120.391 252.634 120.406 252.426 120.406V122.406ZM251.625 122.366C251.855 122.384 252.128 122.406 252.426 122.406V120.406C252.218 120.406 252.02 120.391 251.781 120.372L251.625 122.366ZM251.036 122.333C251.225 122.335 251.407 122.349 251.625 122.366L251.781 120.372C251.572 120.356 251.327 120.336 251.062 120.333L251.036 122.333ZM250.25 121.943L250.319 122.017L251.778 120.649L251.709 120.575L250.25 121.943ZM208.411 77.3727C208.411 101.647 227.33 121.428 250.945 122.258L251.015 120.26C228.506 119.468 210.411 100.599 210.411 77.3727H208.411ZM283.262 146.942C282.051 147.519 280.825 148.067 279.585 148.585L280.355 150.431C281.626 149.9 282.882 149.339 284.123 148.747L283.262 146.942ZM279.648 148.561L277.696 149.225L278.34 151.118L280.292 150.455L279.648 148.561ZM278.747 149.488L278.696 149.433L277.237 150.801L277.288 150.856L278.747 149.488ZM277.622 149.178C269.713 152.08 261.244 153.745 252.426 153.745V155.745C261.498 155.745 270.2 154.032 278.311 151.056L277.622 149.178ZM252.426 153.745C211.211 153.745 177.589 119.472 177.589 77.3727H175.589C175.589 120.538 210.069 155.745 252.426 155.745V153.745ZM177.589 77.3727C177.589 35.2729 211.139 1 252.426 1V-1C209.996 -1 175.589 34.2076 175.589 77.3727H177.589ZM252.426 1C293.712 1 327.262 35.2729 327.262 77.3727H329.262C329.262 34.2076 294.856 -1 252.426 -1V1ZM327.262 77.3727C327.262 98.1502 319.018 116.989 305.719 130.748L307.157 132.138C320.802 118.021 329.262 98.6889 329.262 77.3727H327.262ZM305.708 132.126L327.532 155.429L328.992 154.061L307.168 130.759L305.708 132.126ZM328.262 153.745H290.163V155.745H328.262V153.745ZM290.893 154.061L284.422 147.161L282.963 148.529L289.434 155.429L290.893 154.061Z" fill="#1E1E1E" mask="url(#path-3-inside-1)"/>
</g>
</svg>
