<?xml version="1.0" encoding="utf-8"?>
<!-- Generator: Adobe Illustrator 21.1.0, SVG Export Plug-In . SVG Version: 6.00 Build 0)  -->
<svg version="1.1" id="Слой_1" xmlns="http://www.w3.org/2000/svg" xmlns:xlink="http://www.w3.org/1999/xlink" x="0px" y="0px"
	 viewBox="0 0 46.1 46" style="enable-background:new 0 0 46.1 46;" xml:space="preserve">
<style type="text/css">
	.st0{clip-path:url(#SVGID_2_);}
	.st1{fill:#1E1E1E;}
</style>
<g>
	<defs>
		<rect id="SVGID_1_" x="0.1" width="46" height="46"/>
	</defs>
	<clipPath id="SVGID_2_">
		<use xlink:href="#SVGID_1_"  style="overflow:visible;"/>
	</clipPath>
	<g class="st0">
		<path class="st1" d="M39.5,19.6c-0.3-0.2-0.7-0.1-0.9,0.2c-0.2,0.3-0.1,0.7,0.3,0.9c3.7,2.1,5.8,4.9,5.8,7.8
			c0,5.6-7.8,10.4-18.3,11.3c-0.4,0-0.6,0.4-0.6,0.7c0,0.4,0.3,0.6,0.7,0.6c0,0,0,0,0.1,0c5.3-0.4,10.2-1.9,13.7-4.2
			c3.7-2.3,5.7-5.3,5.7-8.5C46,25.1,43.7,21.9,39.5,19.6z"/>
		<path class="st1" d="M23.6,41C23.6,41,23.6,41,23.6,41C23.6,40.9,23.6,40.9,23.6,41C23.6,40.9,23.6,40.9,23.6,41
			c0.1-0.1,0.1-0.1,0.1-0.1c0,0,0,0,0,0c0,0,0,0,0-0.1c0,0,0,0,0,0c0,0,0,0,0-0.1c0,0,0,0,0,0c0,0,0,0,0-0.1c0,0,0,0,0-0.1
			c0,0,0,0,0,0c0,0,0,0,0-0.1c0,0,0,0,0,0c0,0,0,0,0-0.1c0,0,0,0,0,0c0,0,0,0,0,0c0,0,0,0,0,0c0,0,0,0,0,0c0,0,0,0,0,0
			c0,0,0,0,0-0.1c0,0,0,0,0,0c0,0,0,0,0-0.1c0,0,0,0,0,0c0,0,0,0,0,0c0,0,0,0,0,0l-3.5-2.7c-0.3-0.2-0.7-0.2-0.9,0.1
			c-0.2,0.3-0.2,0.7,0.1,0.9l1.9,1.5c-5.1-0.3-9.8-1.4-13.4-3.4c-4-2.2-6.2-5-6.2-8c0-2.9,2.1-5.6,5.8-7.8c0.3-0.2,0.4-0.6,0.3-0.9
			c-0.2-0.3-0.6-0.4-0.9-0.2C2.3,21.9,0,25.1,0,28.5c0,3.5,2.4,6.8,6.9,9.2c3.9,2.1,8.8,3.3,14.2,3.6l-2,1.6
			c-0.3,0.2-0.4,0.6-0.1,0.9c0.1,0.2,0.3,0.3,0.5,0.3c0.1,0,0.3,0,0.4-0.1l3.5-2.7c0,0,0,0,0,0c0,0,0,0,0,0c0,0,0,0,0,0
			C23.5,41.1,23.5,41,23.6,41C23.5,41,23.5,41,23.6,41C23.5,41,23.6,41,23.6,41z"/>
		<path class="st1" d="M9.4,25.4l13.2,6.7c0,0,0,0,0,0c0,0,0,0,0,0c0,0,0,0,0.1,0c0,0,0,0,0,0c0,0,0,0,0.1,0c0,0,0,0,0,0
			c0,0,0.1,0,0.1,0c0,0,0.1,0,0.1,0c0,0,0,0,0,0c0,0,0,0,0.1,0c0,0,0,0,0,0c0,0,0,0,0.1,0c0,0,0,0,0,0c0,0,0,0,0,0l13.2-6.7
			c0.2-0.1,0.4-0.3,0.4-0.6v-2.7c0-0.4-0.3-0.7-0.7-0.7c-0.4,0-0.7,0.3-0.7,0.7v2.3l-11.9,6.1V16.7l11.9-6.1v8.7
			c0,0.4,0.3,0.7,0.7,0.7c0.4,0,0.7-0.3,0.7-0.7V9.6c0,0,0-0.1,0-0.1c0,0,0,0,0,0c0,0,0,0,0-0.1c0,0,0,0,0,0c0,0,0,0,0,0
			c0,0,0,0,0,0c0,0,0,0,0,0c0,0,0,0,0,0c0,0,0,0,0,0c0,0,0,0,0,0c0,0,0,0,0,0c0,0,0,0,0,0c0,0,0,0,0,0c0,0,0,0,0,0c0,0,0,0,0,0
			c0,0,0,0,0,0c0,0,0,0,0,0L23.3,2.2c-0.2-0.1-0.4-0.1-0.6,0l-1.9,1c-0.3,0.2-0.5,0.6-0.3,0.9c0.2,0.3,0.6,0.5,0.9,0.3L23,3.6
			l11.8,6L34,10l-11,5.6L12,10l-0.7-0.4L19,5.6c0.3-0.2,0.5-0.6,0.3-0.9c-0.2-0.3-0.6-0.5-0.9-0.3L9.4,9c0,0,0,0,0,0c0,0,0,0,0,0
			c0,0,0,0,0,0c0,0,0,0,0,0c0,0,0,0,0,0c0,0,0,0,0,0c0,0,0,0,0,0c0,0,0,0,0,0c0,0,0,0,0,0c0,0,0,0,0,0c0,0,0,0,0,0c0,0,0,0,0,0
			c0,0,0,0,0,0.1c0,0,0,0,0,0c0,0,0,0,0,0.1c0,0,0,0,0,0c0,0,0,0.1,0,0.1v5.1c0,0.4,0.3,0.7,0.7,0.7c0.4,0,0.7-0.3,0.7-0.7v-4
			l11.9,6.1v13.7l-11.9-6.1v-7c0-0.4-0.3-0.7-0.7-0.7c-0.4,0-0.7,0.3-0.7,0.7v7.4C9.1,25,9.2,25.3,9.4,25.4z"/>
	</g>
</g>
</svg>
