<?xml version="1.0" encoding="utf-8"?>
<!-- Generator: Adobe Illustrator 21.1.0, SVG Export Plug-In . SVG Version: 6.00 Build 0)  -->
<svg version="1.1" id="Слой_1" xmlns="http://www.w3.org/2000/svg" xmlns:xlink="http://www.w3.org/1999/xlink" x="0px" y="0px"
	 viewBox="0 0 16 16" style="enable-background:new 0 0 16 16;" xml:space="preserve">
<path d="M8.6,11.9l-2,2c-1.2,1.3-3.3,1.3-4.6,0c-0.6-0.6-1-1.4-1-2.3c0-1,0.3-1.7,1-2.3l2-2C4.2,7,4.2,6.7,4,6.5
	c-0.2-0.2-0.5-0.2-0.7,0l-2,2C0.4,9.4,0,10.4,0,11.6s0.4,2.2,1.3,3.1c0.8,0.8,2,1.3,3.1,1.3c1.2,0,2.2-0.4,3-1.3l2-2
	c0.2-0.2,0.2-0.5,0-0.7C9.1,11.7,8.8,11.7,8.6,11.9z"/>
<path d="M14.7,1.3c-1.7-1.7-4.3-1.7-6,0l-2,2c-0.2,0.2-0.2,0.5,0,0.7c0.2,0.2,0.5,0.2,0.7,0l2-2c1.3-1.3,3.3-1.3,4.6,0
	s1.3,3.3,0,4.6l-2,2c-0.2,0.2-0.2,0.5,0,0.7c0.1,0.1,0.3,0.1,0.4,0.1c0.1,0,0.2,0,0.3-0.1l2-2C16.4,5.7,16.4,3,14.7,1.3z"/>
<path d="M3.9,12.1c0.1,0.1,0.3,0.1,0.4,0.1c0.2,0,0.3-0.1,0.3-0.1L12,4.8c0.2-0.2,0.2-0.5,0-0.7c-0.2-0.2-0.5-0.2-0.7,0l-7.3,7.3
	C3.7,11.6,3.7,11.9,3.9,12.1z"/>
</svg>
