<?xml version="1.0" encoding="utf-8"?>
<!-- Generator: Adobe Illustrator 21.1.0, SVG Export Plug-In . SVG Version: 6.00 Build 0)  -->
<svg version="1.1" id="Слой_1" xmlns="http://www.w3.org/2000/svg" xmlns:xlink="http://www.w3.org/1999/xlink" x="0px" y="0px"
	 viewBox="0 0 20 18.3" style="enable-background:new 0 0 20 18.3;" xml:space="preserve">
<path d="M6,6.5L5.2,4.1h3.7c0.4,0,0.7-0.3,0.7-0.7c0-0.4-0.3-0.7-0.7-0.7H4.8L4,0.5C4,0.2,3.7,0,3.4,0L0.7,0C0.3,0,0,0.3,0,0.7
	c0,0.4,0.3,0.7,0.7,0.7h2.1c1.3,3.9,2.5,7.8,3.8,11.7c-0.5,0.1-1,0.4-1.3,0.7c-0.5,0.5-0.8,1.1-0.8,1.8c0,0.7,0.3,1.4,0.8,1.8
	c0.5,0.5,1.1,0.8,1.8,0.8c0.7,0,1.4-0.3,1.8-0.8c0.5-0.5,0.8-1.1,0.8-1.8c0-0.4-0.1-0.8-0.3-1.2h4.9c-0.2,0.4-0.3,0.7-0.3,1.2
	c0,0.7,0.3,1.4,0.8,1.8c0.5,0.5,1.1,0.8,1.8,0.8c0.7,0,1.4-0.3,1.8-0.8c0.5-0.5,0.8-1.1,0.8-1.8c0-0.7-0.3-1.4-0.8-1.8
	c-0.5-0.5-1.2-0.8-1.8-0.8H8.2l-0.4-1.3l9,0c0.3,0,0.6-0.2,0.7-0.5l2.5-7.7C20,3.6,20,3.5,20,3.4c0-0.4-0.3-0.7-0.7-0.7h-4.7
	c-0.4,0-0.7,0.3-0.7,0.7c0,0.4,0.3,0.7,0.7,0.7h3.7l-0.8,2.4H6z M17.1,7.9H6.5l0.8,2.5h9L17.1,7.9z M11.8,2.7
	c-0.4,0-0.7,0.3-0.7,0.7c0,0.4,0.3,0.7,0.7,0.7c0.4,0,0.7-0.3,0.7-0.7C12.5,3,12.2,2.7,11.8,2.7z M16.8,14.5c0.3,0,0.6,0.1,0.8,0.3
	c0.2,0.2,0.3,0.5,0.3,0.8c0,0.3-0.1,0.6-0.3,0.8s-0.5,0.3-0.8,0.3c-0.3,0-0.6-0.1-0.8-0.3c-0.2-0.2-0.3-0.5-0.3-0.8
	c0-0.3,0.1-0.6,0.3-0.8c0.2-0.2,0.5-0.3,0.7-0.3C16.7,14.5,16.8,14.5,16.8,14.5z M8,14.8c0.2,0.2,0.3,0.5,0.3,0.8
	c0,0.3-0.1,0.6-0.3,0.8c-0.2,0.2-0.5,0.3-0.8,0.3c-0.3,0-0.6-0.1-0.8-0.3C6.2,16.3,6,16,6,15.7c0-0.3,0.1-0.6,0.3-0.8
	c0.2-0.2,0.5-0.3,0.8-0.3C7.5,14.5,7.8,14.6,8,14.8z"/>
</svg>
