<?xml version="1.0" encoding="utf-8"?>
<!-- Generator: Adobe Illustrator 21.1.0, SVG Export Plug-In . SVG Version: 6.00 Build 0)  -->
<svg version="1.1" id="Слой_1" xmlns="http://www.w3.org/2000/svg" xmlns:xlink="http://www.w3.org/1999/xlink" x="0px" y="0px"
	 viewBox="0 0 34 25.1" style="enable-background:new 0 0 34 25.1;" xml:space="preserve">
<path d="M33.3,23.7h-3.5v-0.9h1.1c0.4,0,0.7-0.3,0.7-0.7v-4.4c0-0.8-0.7-1.5-1.4-1.5h-2.8v-1.8h1.5c0.3,0,0.5-0.1,0.7-0.4
	c0.2-0.2,0.2-0.5,0.1-0.8c-0.5-1.1-0.6-2.3-0.7-3c0-0.6-0.6-1.1-1.2-1.1h-2c-0.6,0-1.1,0.5-1.2,1.1c0,0.6-0.2,1.9-0.7,3
	c-0.1,0.3-0.1,0.6,0.1,0.8c0.2,0.2,0.4,0.4,0.7,0.4H26v1.8h-2.8c-0.8,0-1.4,0.7-1.4,1.5v4.4c0,0.4,0.3,0.7,0.7,0.7h1.1v0.9H20v-1.4
	h0.2c0.4,0,0.7-0.3,0.7-0.7v-3.1c0-0.8-0.6-1.5-1.4-1.6v-4.4c0-1.2-0.9-2.1-2.1-2.1H4.6c-1.2,0-2.1,1-2.1,2.1v4.4
	c-0.8,0.1-1.4,0.8-1.4,1.6v3.1c0,0.4,0.3,0.7,0.7,0.7h0.2v1.4H0.7C0.3,23.7,0,24,0,24.4c0,0.4,0.3,0.7,0.7,0.7h32.7
	c0.4,0,0.7-0.3,0.7-0.7C34,24,33.7,23.7,33.3,23.7z M25.8,10.6h1.8c0.1,0.6,0.2,1.6,0.5,2.6h-2.8C25.6,12.1,25.7,11.2,25.8,10.6z
	 M23.2,17.6h6.9c0.1,0,0.1,0.1,0.1,0.1v1.1h-7.2v-1.1C23.1,17.7,23.1,17.6,23.2,17.6z M23.1,20.2h7.2v1.2h-7.2V20.2z M24.8,22.8h3.7
	v0.9h-3.7V22.8z M3.8,12.4c0-0.4,0.3-0.8,0.8-0.8h12.8c0.4,0,0.8,0.3,0.8,0.8v4.4h-0.9v-1.5c0-0.4-0.2-0.7-0.5-0.8l-0.1-0.1
	c-1.2-0.6-2.7-0.6-3.9,0l-0.1,0.1c-0.3,0.1-0.5,0.5-0.5,0.8v1.5h-1.9v-1.5c0-0.4-0.2-0.7-0.5-0.8l-0.1-0.1c-1.2-0.6-2.7-0.6-3.9,0
	l-0.1,0.1C5.2,14.6,5,14.9,5,15.3v1.5H3.8V12.4z M15.9,16.8h-2.5v-1.2c0.8-0.3,1.7-0.3,2.5,0V16.8z M8.8,16.8H6.3v-1.2
	c0.8-0.3,1.7-0.3,2.5,0V16.8z M3.4,23.7v-1.4h8c0.4,0,0.7-0.3,0.7-0.7s-0.3-0.7-0.7-0.7H2.5v-2.5c0-0.2,0.1-0.3,0.3-0.3h16.5
	c0.2,0,0.3,0.1,0.3,0.3v2.5h-2.9c-0.4,0-0.7,0.3-0.7,0.7s0.3,0.7,0.7,0.7h2v1.4H3.4z"/>
<path d="M12,7.8c0.1,0.3,0.3,0.4,0.6,0.6c0,0,0,0,0,0c0.2,0.1,0.4,0.1,0.6,0.2c0,0,0,0,0,0c0,0,0,0,0,0h0h8.1c0.1,0,0.1,0,0.2,0
	c0.7-0.1,1.2-0.7,1.2-1.4V1.4c0-0.8-0.6-1.4-1.4-1.4h-8c-0.8,0-1.4,0.6-1.4,1.4v5.6C11.8,7.3,11.9,7.5,12,7.8C12,7.8,12,7.8,12,7.8z
	 M21.4,7.1C21.4,7.1,21.4,7.1,21.4,7.1c-0.1,0.1-0.1,0.1-0.1,0.1h-7.8c0.6-1,1.6-2.5,2.6-2.5c0.7-0.1,1.4,0.4,2.2,0.9
	c0.9,0.6,1.9,1.2,3.1,1.1L21.4,7.1L21.4,7.1z M21.3,1.3C21.4,1.3,21.4,1.4,21.3,1.3l0.1,0.9c-0.1,0-0.3,0.1-0.4,0.1
	c-0.6,0-1.1-0.4-1.3-1H21.3z M13.3,1.3h5.1c0.2,1.3,1.3,2.3,2.7,2.3c0.1,0,0.3,0,0.4,0v1.7c-0.8,0-1.5-0.4-2.4-0.9
	c-0.9-0.6-1.8-1.1-3-1.1c-1.2,0.1-2.2,1-2.9,2.1L13.3,1.3C13.2,1.4,13.2,1.3,13.3,1.3z"/>
<path d="M14,20.9c-0.4,0-0.7,0.3-0.7,0.7c0,0.4,0.3,0.7,0.7,0.7c0.4,0,0.7-0.3,0.7-0.7C14.7,21.2,14.4,20.9,14,20.9z"/>
</svg>
