<?xml version="1.0" encoding="utf-8"?>
<!-- Generator: Adobe Illustrator 22.0.0, SVG Export Plug-In . SVG Version: 6.00 Build 0)  -->
<svg version="1.1" id="Слой_1" xmlns="http://www.w3.org/2000/svg" xmlns:xlink="http://www.w3.org/1999/xlink" x="0px" y="0px"
	 viewBox="0 0 52.5 41.8" style="enable-background:new 0 0 52.5 41.8;" xml:space="preserve">
<g>
	<path d="M18.2,25.5c-0.2,0-0.3,0.1-0.5,0.2c-0.4,0.4-0.4,1.1,0,1.5l0.1,0.1l5.5,5.6c0.2,0.2,0.5,0.3,0.8,0.3s0.6-0.2,0.8-0.4
		l9.9-9.9c0.5-0.4,0.5-1.1,0-1.6c-0.4-0.5-1.1-0.5-1.6,0l-9.1,9.1l-4.7-4.7C19.1,25.4,18.6,25.3,18.2,25.5z"/>
	<path d="M9.3,15.5h10.1c0.6,0,1-0.5,1-1c0.1-0.6-0.4-1-1-1H9.3c-0.6,0-1,0.5-1,1C8.3,15.1,8.8,15.5,9.3,15.5z"/>
	<path d="M9.3,20h5.1c0.6,0,1-0.5,1-1s-0.4-1-1-1H9.3c-0.6,0-1,0.5-1,1C8.3,19.6,8.8,20,9.3,20z"/>
	<path d="M50.3,0.1H2.4c-1.3,0-2.3,1-2.3,2.3v5.2c0,1.3,1,2.3,2.3,2.3h0.5v29.6c0,1.3,1,2.3,2.3,2.3h42.2c1.3,0,2.3-1,2.3-2.3V10
		h0.5c1.3,0,2.3-1,2.3-2.3V2.4C52.6,1.1,51.6,0.1,50.3,0.1z M47.4,39.5H5.3V10h42.2L47.4,39.5z M50.3,7.6h-1.7H4.1H2.4V2.4h47.9V7.6
		z"/>
</g>
</svg>
