<?xml version="1.0" encoding="utf-8"?>
<!-- Generator: Adobe Illustrator 21.1.0, SVG Export Plug-In . SVG Version: 6.00 Build 0)  -->
<svg version="1.1" id="Слой_1" xmlns="http://www.w3.org/2000/svg" xmlns:xlink="http://www.w3.org/1999/xlink" x="0px" y="0px"
	 viewBox="0 0 53.1 43.6" style="enable-background:new 0 0 53.1 43.6;" xml:space="preserve">
<g>
	<path d="M41.9,34.1h5.1c0.6,0,1,0.5,1,1c0,0.6-0.5,1-1,1h-5.1c-0.6,0-1-0.5-1-1C40.8,34.6,41.3,34.1,41.9,34.1z"/>
	<path d="M39,29.6h7.9c0.6,0,1,0.5,1,1v0c0,0.6-0.5,1-1,1H39c-0.6,0-1-0.5-1-1v0C38,30,38.4,29.6,39,29.6z"/>
	<path d="M14.3,43.6h35.6c1.7,0,3.2-1.4,3.2-3.2V13.6c0-0.6-0.5-1.1-1.1-1.1c-0.6,0-1.1,0.5-1.1,1.1v26.8c0,0.5-0.4,1-1,1H28.4
		l0.1-0.1c0.2-0.2,0.4-0.5,0.5-0.8l0,0l0,0c0.4,0.2,0.8,0.3,1.3,0.3c0.8,0,1.6-0.3,2.1-0.9c0.6-0.6,0.9-1.3,0.9-2.1
		c0-0.4-0.1-0.9-0.3-1.3l0,0l0,0c0.3-0.1,0.6-0.3,0.8-0.6c0.6-0.6,0.9-1.3,0.9-2.1c0-0.8-0.3-1.6-0.9-2.1l-3.5-3.5h0.1
		c1.1,0,2.1-0.5,2.7-1.4l0,0c1.1-1.5,0.8-3.6-0.7-4.7c-0.9-0.7-2.2-1.6-3.7-2.8c-2.2-1.6-4.9-2.5-7.6-2.5h-3.2l-4.8-4.8v-7
		c0-0.5,0.4-1,1-1h10.7v10.5c0,0.4,0.3,0.8,0.7,1c0.1,0.1,0.3,0.1,0.4,0.1c0.3,0,0.6-0.1,0.8-0.3l2.2-2.2l2.2,2.2
		c0.2,0.2,0.5,0.3,0.8,0.3c0.3,0,0.6-0.1,0.8-0.3l2.2-2.2l2.2,2.2c0.2,0.2,0.5,0.3,0.8,0.3c0.1,0,0.3,0,0.4-0.1
		c0.4-0.2,0.7-0.6,0.7-1V3.8h10.7c0.5,0,1,0.4,1,1v3.7c0,0.6,0.5,1.1,1.1,1.1c0.6,0,1.1-0.5,1.1-1.1V4.8c0-1.7-1.4-3.2-3.1-3.2H14.3
		c-1.7,0-3.1,1.4-3.1,3.2v4.8L1.9,0.3C1.6,0.1,1.4,0,1.1,0S0.5,0.1,0.3,0.3C0.1,0.5,0,0.8,0,1.1c0,0.3,0.1,0.6,0.3,0.8L12.5,14
		l-6.4,6.4l-4.2-4.3c-0.2-0.2-0.5-0.3-0.8-0.3s-0.6,0.1-0.8,0.3C0.1,16.3,0,16.6,0,16.9s0.1,0.6,0.3,0.8l8.6,8.6v0.9
		c0,2.4,0.8,4.7,2.3,6.6l0,0v6.7C11.2,42.2,12.6,43.6,14.3,43.6z M27.2,3.8H37v7.9l-1.1-1.1c-0.2-0.2-0.5-0.3-0.8-0.3
		c-0.3,0-0.6,0.1-0.8,0.3l-2.2,2.2l-2.2-2.2c-0.2-0.2-0.5-0.3-0.8-0.3c-0.3,0-0.6,0.1-0.8,0.3l-1.1,1.1V3.8z M14.3,41.4
		c-0.5,0-1-0.4-1-1V36l5.4,5.4H14.3z M7.6,21.9l6.4-6.4l2.1,2.1L9.7,24L7.6,21.9z M11.1,27.2v-1.5l0,0l6.9-6.9h3.4
		c2.3,0,4.5,0.7,6.3,2.1c1.6,1.2,2.8,2.1,3.7,2.8c0.5,0.4,0.7,1.2,0.2,1.7l0,0c-0.2,0.3-0.6,0.5-0.9,0.5c-0.2,0-0.4-0.1-0.6-0.2
		l-4-2.6C25.8,23,25.6,23,25.3,23c-0.4,0-0.7,0.2-1,0.5c-0.4,0.5-0.4,1.2,0.1,1.7l8,8c0.2,0.2,0.2,0.4,0.2,0.6
		c0,0.2-0.1,0.4-0.2,0.6c-0.2,0.2-0.4,0.3-0.6,0.3c-0.2,0-0.4-0.1-0.5-0.2l-4-4c0,0-0.1-0.1-0.1-0.1l-0.4-0.4
		c-0.2-0.2-0.5-0.3-0.8-0.3c-0.3,0-0.6,0.1-0.8,0.3c-0.4,0.4-0.4,1.1,0,1.5l4.4,4.4c0,0,0.1,0.1,0.1,0.1l1.2,1.2
		c0.2,0.2,0.2,0.4,0.2,0.6s-0.1,0.4-0.2,0.6c-0.2,0.2-0.4,0.2-0.6,0.2c-0.2,0-0.4-0.1-0.6-0.2l-1.2-1.2c0-0.1-0.1-0.1-0.1-0.1
		l-3.9-3.9c0,0-0.1-0.1-0.1-0.1L24,32.7c-0.2-0.2-0.5-0.3-0.8-0.3s-0.6,0.1-0.8,0.3c-0.2,0.2-0.3,0.5-0.3,0.8c0,0.3,0.1,0.6,0.3,0.8
		l4.5,4.5c0.3,0.4,0.2,0.8-0.1,1.2c-0.2,0.2-0.4,0.2-0.6,0.2c-0.2,0-0.4-0.1-0.6-0.2l-1.3-1.3c0-0.1-0.1-0.1-0.1-0.1l-2.5-2.5
		c0,0-0.1-0.1-0.1-0.1l-0.4-0.4c-0.2-0.2-0.5-0.3-0.8-0.3c-0.3,0-0.6,0.1-0.8,0.3c-0.2,0.2-0.3,0.5-0.3,0.8s0.1,0.6,0.3,0.8l3,3
		c0.1,0.2,0.2,0.3,0.2,0.5c0,0.2-0.1,0.4-0.3,0.6c-0.2,0.2-0.4,0.2-0.6,0.2c-0.2,0-0.4-0.1-0.6-0.2l-8-8
		C12,31.6,11.1,29.4,11.1,27.2z"/>
</g>
</svg>
