<?xml version="1.0" encoding="utf-8"?>
<!-- Generator: Adobe Illustrator 21.1.0, SVG Export Plug-In . SVG Version: 6.00 Build 0)  -->
<svg version="1.1" id="Слой_1" xmlns="http://www.w3.org/2000/svg" xmlns:xlink="http://www.w3.org/1999/xlink" x="0px" y="0px"
	 viewBox="0 0 13.9 14" style="enable-background:new 0 0 13.9 14;" xml:space="preserve">
<style type="text/css">
	.st0{fill:none;}
</style>
<g>
	<g>
		<rect x="10.2" y="1.6" transform="matrix(0.7071 -0.7071 0.7071 0.7071 1.0859 8.6215)" class="st0" width="1.6" height="2.8"/>
		<polygon class="st0" points="1.2,10.7 1.2,12.7 3.2,12.7 10.5,5.4 8.5,3.4 		"/>
		<path d="M13.8,3L11,0.2c-0.2-0.2-0.6-0.2-0.9,0l-2,2L0.2,10C0,10.2,0,10.3,0,10.5v2.9c0,0.2,0.1,0.3,0.2,0.4
			C0.3,13.9,0.5,14,0.6,14h2.9c0.2,0,0.3-0.1,0.4-0.2l9.9-9.9C14,3.7,14,3.3,13.8,3z M3.2,12.7h-2v-2l7.3-7.3l2,2L3.2,12.7z
			 M11.4,4.5l-2-2l1.1-1.1l2,2L11.4,4.5z"/>
	</g>
</g>
</svg>
