<?xml version="1.0" encoding="utf-8"?>
<!-- Generator: Adobe Illustrator 19.0.1, SVG Export Plug-In . SVG Version: 6.00 Build 0)  -->
<svg version="1.1" id="Шар_1" xmlns="http://www.w3.org/2000/svg" xmlns:xlink="http://www.w3.org/1999/xlink" x="0px" y="0px"
	 viewBox="-294 389.6 23 13.7" style="enable-background:new -294 389.6 23 13.7;" xml:space="preserve">
<path d="M-282.5,389.6c-4.4,0-8.4,2.4-11.3,6.3c-0.2,0.3-0.2,0.8,0,1.1c2.9,3.9,6.9,6.3,11.3,6.3c4.4,0,8.4-2.4,11.3-6.3
	c0.2-0.3,0.2-0.8,0-1.1C-274.1,392-278.1,389.6-282.5,389.6z M-282.2,401.3c-2.9,0.2-5.3-2.2-5.1-5.1c0.2-2.4,2.1-4.4,4.5-4.5
	c2.9-0.2,5.3,2.2,5.1,5.1C-277.8,399.2-279.8,401.2-282.2,401.3z M-282.3,399.1c-1.6,0.1-2.9-1.2-2.8-2.8c0.1-1.3,1.1-2.3,2.4-2.4
	c1.6-0.1,2.9,1.2,2.8,2.8C-280,398-281,399-282.3,399.1z"/>
</svg>
