<?xml version="1.0" encoding="utf-8"?>
<!-- Generator: Adobe Illustrator 21.1.0, SVG Export Plug-In . SVG Version: 6.00 Build 0)  -->
<svg version="1.1" id="Слой_1" xmlns="http://www.w3.org/2000/svg" xmlns:xlink="http://www.w3.org/1999/xlink" x="0px" y="0px"
	 viewBox="0 0 23 23" style="enable-background:new 0 0 23 23;" xml:space="preserve">
<style type="text/css">
	.st0{clip-path:url(#SVGID_2_);}
</style>
<g>
	<defs>
		<rect id="SVGID_1_" width="23" height="23"/>
	</defs>
	<clipPath id="SVGID_2_">
		<use xlink:href="#SVGID_1_"  style="overflow:visible;"/>
	</clipPath>
	<g class="st0">
		<path d="M22.6,10.4c-1.3-1.7-3-3-4.8-4c-1.9-1-4-1.4-6.1-1.5c-0.1,0-0.3,0-0.4,0C9.2,5,7.1,5.5,5.2,6.5c-1.9,0.9-3.5,2.3-4.8,4
			c-0.5,0.6-0.5,1.5,0,2.2c1.3,1.7,3,3,4.8,4c1.9,1,4,1.4,6.1,1.5c0.1,0,0.3,0,0.4,0c2.1,0,4.2-0.5,6.1-1.5c1.9-0.9,3.5-2.3,4.8-4
			C23.1,11.9,23.1,11.1,22.6,10.4z M5.6,15.7c-1.7-0.9-3.3-2.2-4.5-3.7c-0.2-0.3-0.2-0.7,0-1c1.2-1.5,2.8-2.8,4.5-3.7
			c0.5-0.2,1-0.5,1.5-0.6C5.8,7.8,5,9.6,5,11.5c0,1.9,0.8,3.7,2.2,4.8C6.6,16.2,6.1,16,5.6,15.7z M11.5,17.1c-3.1,0-5.6-2.5-5.6-5.6
			c0-3.1,2.5-5.6,5.6-5.6c3.1,0,5.6,2.5,5.6,5.6C17.1,14.6,14.6,17.1,11.5,17.1z M21.9,12c-1.2,1.5-2.8,2.8-4.5,3.7
			c-0.5,0.2-1,0.5-1.5,0.6c1.3-1.2,2.2-2.9,2.2-4.8c0-1.9-0.8-3.7-2.2-4.8c0.5,0.2,1,0.4,1.5,0.6c1.7,0.9,3.3,2.2,4.5,3.7
			C22.1,11.3,22.1,11.7,21.9,12z"/>
		<path d="M11.5,9.1c-1.3,0-2.4,1.1-2.4,2.4c0,1.3,1.1,2.4,2.4,2.4c1.3,0,2.4-1.1,2.4-2.4C13.9,10.2,12.8,9.1,11.5,9.1z M11.5,13
			c-0.8,0-1.5-0.7-1.5-1.5s0.7-1.5,1.5-1.5c0.8,0,1.5,0.7,1.5,1.5S12.3,13,11.5,13z"/>
	</g>
</g>
</svg>
