<?xml version="1.0" encoding="utf-8"?>
<!-- Generator: Adobe Illustrator 21.1.0, SVG Export Plug-In . SVG Version: 6.00 Build 0)  -->
<svg version="1.1" id="Слой_1" xmlns="http://www.w3.org/2000/svg" xmlns:xlink="http://www.w3.org/1999/xlink" x="0px" y="0px"
	 viewBox="0 0 8.7 16.2" style="enable-background:new 0 0 8.7 16.2;" xml:space="preserve">
<path d="M8.4,0L6.3,0C4,0,2.4,1.6,2.4,4v1.8H0.3C0.1,5.8,0,6,0,6.1v2.7C0,9,0.1,9.1,0.3,9.1h2.1v6.7c0,0.2,0.1,0.3,0.3,0.3h2.7
	c0.2,0,0.3-0.1,0.3-0.3V9.1h2.5c0.2,0,0.3-0.1,0.3-0.3l0-2.7c0-0.1,0-0.2-0.1-0.2C8.5,5.8,8.4,5.8,8.3,5.8H5.8V4.3
	C5.8,3.5,6,3.1,7,3.1l1.4,0c0.2,0,0.3-0.1,0.3-0.3V0.3C8.7,0.2,8.6,0,8.4,0z"/>
</svg>
