<?xml version="1.0" encoding="utf-8"?>
<!-- Generator: Adobe Illustrator 21.1.0, SVG Export Plug-In . SVG Version: 6.00 Build 0)  -->
<svg version="1.1" id="Слой_1" xmlns="http://www.w3.org/2000/svg" xmlns:xlink="http://www.w3.org/1999/xlink" x="0px" y="0px"
	 viewBox="0 0 16 16" style="enable-background:new 0 0 16 16;" xml:space="preserve">
<style type="text/css">
	.st0{clip-path:url(#SVGID_2_);}
</style>
<g>
	<defs>
		<rect id="SVGID_1_" width="16" height="16"/>
	</defs>
	<clipPath id="SVGID_2_">
		<use xlink:href="#SVGID_1_"  style="overflow:visible;"/>
	</clipPath>
	<g class="st0">
		<path d="M3.5,9.7L3,11.7l-2,0C0.3,10.7,0,9.4,0,8c0-1.3,0.3-2.6,0.9-3.7h0l1.8,0.3l0.8,1.8C3.3,6.9,3.2,7.5,3.2,8
			C3.2,8.6,3.4,9.1,3.5,9.7z"/>
		<path d="M15.9,6.5C16,7,16,7.5,16,8c0,0.6-0.1,1.1-0.2,1.7c-0.4,1.8-1.4,3.4-2.8,4.6l0,0l-2.3-0.1l-0.3-2c0.9-0.5,1.7-1.4,2.1-2.4
			H8.2V6.5h4.3H15.9z"/>
		<path d="M13,14.2L13,14.2C11.6,15.3,9.9,16,8,16c-3,0-5.7-1.7-7-4.2l2.6-2.1C4.2,11.5,6,12.8,8,12.8c0.9,0,1.7-0.2,2.4-0.7
			L13,14.2z"/>
		<path d="M13.1,1.8L10.5,4C9.8,3.5,8.9,3.2,8,3.2c-2.1,0-3.9,1.3-4.5,3.2L0.9,4.3h0C2.2,1.8,4.9,0,8,0C9.9,0,11.7,0.7,13.1,1.8z"/>
	</g>
</g>
</svg>
