<?xml version="1.0" encoding="utf-8"?>
<!-- Generator: Adobe Illustrator 21.1.0, SVG Export Plug-In . SVG Version: 6.00 Build 0)  -->
<svg version="1.1" id="Слой_1" xmlns="http://www.w3.org/2000/svg" xmlns:xlink="http://www.w3.org/1999/xlink" x="0px" y="0px"
	 viewBox="0 0 15.2 15.2" style="enable-background:new 0 0 15.2 15.2;" xml:space="preserve">
<path d="M11,0H4.2C1.9,0,0,1.9,0,4.2V11c0,2.3,1.9,4.2,4.2,4.2H11c2.3,0,4.2-1.9,4.2-4.2V4.2C15.2,1.9,13.3,0,11,0z M13.9,11
	c0,1.6-1.3,2.8-2.8,2.8H4.2c-1.6,0-2.8-1.3-2.8-2.8V4.2c0-1.6,1.3-2.8,2.8-2.8H11c1.6,0,2.8,1.3,2.8,2.8L13.9,11L13.9,11z"/>
<path d="M7.6,3.7c-2.2,0-3.9,1.8-3.9,3.9c0,2.2,1.8,3.9,3.9,3.9c2.2,0,3.9-1.8,3.9-3.9C11.5,5.4,9.8,3.7,7.6,3.7z M7.6,10.2
	C6.2,10.2,5,9,5,7.6C5,6.2,6.2,5,7.6,5c1.4,0,2.6,1.2,2.6,2.6C10.2,9,9,10.2,7.6,10.2z"/>
<path d="M11.7,2.5c-0.3,0-0.5,0.1-0.7,0.3c-0.2,0.2-0.3,0.4-0.3,0.7c0,0.3,0.1,0.5,0.3,0.7c0.2,0.2,0.4,0.3,0.7,0.3
	c0.3,0,0.5-0.1,0.7-0.3c0.2-0.2,0.3-0.4,0.3-0.7c0-0.3-0.1-0.5-0.3-0.7C12.2,2.6,11.9,2.5,11.7,2.5z"/>
</svg>
