<?xml version="1.0" encoding="utf-8"?>
<!-- Generator: Adobe Illustrator 21.1.0, SVG Export Plug-In . SVG Version: 6.00 Build 0)  -->
<svg version="1.1" id="Слой_1" xmlns="http://www.w3.org/2000/svg" xmlns:xlink="http://www.w3.org/1999/xlink" x="0px" y="0px"
	 viewBox="0 0 62 62" style="enable-background:new 0 0 62 62;" xml:space="preserve">
<style type="text/css">
	.st0{clip-path:url(#SVGID_2_);}
	.st1{stroke:#000000;stroke-width:0.25;}
</style>
<g>
	<defs>
		<rect id="SVGID_1_" width="62" height="62"/>
	</defs>
	<clipPath id="SVGID_2_">
		<use xlink:href="#SVGID_1_"  style="overflow:visible;"/>
	</clipPath>
	<g class="st0">
		<path class="st1" d="M45,5.9c-0.2-0.5-0.7-0.7-1.1-0.6l-0.3,0.1V5.1c0-0.5-0.4-0.9-0.9-0.9c-0.5,0-0.9,0.4-0.9,0.9v0.4l-0.3-0.1
			c-0.5-0.2-1,0.1-1.1,0.6c-0.2,0.5,0.1,1,0.6,1.1l0.3,0.1l-0.2,0.3c-0.4,0.6,0,1.4,0.7,1.4c0.5,0,0.7-0.4,0.9-0.7l0.2,0.3
			c0.3,0.4,0.9,0.5,1.3,0.2c0.4-0.3,0.5-0.9,0.2-1.3l-0.2-0.3L44.4,7C44.9,6.9,45.1,6.4,45,5.9z"/>
		<path class="st1" d="M54,15.6c-0.2-0.5-0.7-0.7-1.1-0.6l-0.3,0.1v-0.4c0-0.5-0.4-0.9-0.9-0.9c-0.5,0-0.9,0.4-0.9,0.9v0.4l-0.3-0.1
			c-0.5-0.2-1,0.1-1.1,0.6c-0.2,0.5,0.1,1,0.6,1.1l0.3,0.1l-0.2,0.3c-0.3,0.4-0.2,1,0.2,1.3c0.4,0.3,1,0.2,1.3-0.2l0.2-0.3
			c0.2,0.3,0.4,0.7,0.9,0.7c0.7,0,1.2-0.8,0.7-1.4L53,16.9l0.3-0.1C53.9,16.6,54.1,16.1,54,15.6z"/>
		<path class="st1" d="M41.8,14.4c0.5,0,0.9-0.4,0.9-0.9c0-0.5-0.4-0.9-0.9-0.9c-0.5,0-0.9,0.4-0.9,0.9C40.9,14,41.3,14.4,41.8,14.4
			z"/>
		<path class="st1" d="M56.4,29.1c0.5,0,0.9-0.4,0.9-0.9s-0.4-0.9-0.9-0.9c-0.5,0-0.9,0.4-0.9,0.9S55.9,29.1,56.4,29.1z"/>
		<path class="st1" d="M46.9,22.2c0.5,0,0.9-0.4,0.9-0.9s-0.4-0.9-0.9-0.9S46,20.8,46,21.3S46.4,22.2,46.9,22.2z"/>
		<path class="st1" d="M56.7,10.3c0.5,0,0.9-0.4,0.9-0.9s-0.4-0.9-0.9-0.9c-0.5,0-0.9,0.4-0.9,0.9S56.2,10.3,56.7,10.3z"/>
		<path class="st1" d="M40,15.7c-0.5-0.6-1.1-0.6-1.1-0.6c-0.5-0.1-1,0.3-1,0.8c-0.1,0.5,0.3,1,0.8,1l-1.6,1.6
			c-0.2,0.2-0.3,0.5-0.3,0.8l0.4,2.2c0,0,0,0,0,0c-2.7-1.4-2.2-1.4-4.8,0h0c0,0,0,0,0,0l0.4-2.2c0.1-0.3,0-0.6-0.3-0.8l-1.6-1.6
			l2.2-0.3c0.3,0,0.6-0.2,0.7-0.5l1-2l0.4,0.8c0.2,0.3,0.5,0.5,0.8,0.5c0.7,0,1.1-0.7,0.8-1.3l-0.4-0.8c-0.7-1.4-2.6-1.3-3.3,0
			l-0.8,1.6c-1.8,0.3-2.4,0.2-2.9,0.9c-0.3,0.3-0.4,0.7-0.4,1.2c0,0.9,0.5,1.3,1.8,2.5l-0.3,1.8c0,0.1,0,0.2,0,0.3
			c0,0.5,0.2,1,0.5,1.3c0.4,0.3,0.8,0.5,1.3,0.5c0.6,0,0.8-0.2,2.4-1h0l1.6,0.8c1.2,0.6,2.7-0.2,2.7-1.6c0-0.1,0-0.2,0-0.3l-0.3-1.8
			l1.3-1.2C40.5,17.5,40.5,16.4,40,15.7z"/>
		<path class="st1" d="M61.1,31.8H49l0.4-0.4c1.2-1.2,0.5-3.2-1.1-3.5L46,27.6l-1-2.1c-0.8-1.5-2.9-1.5-3.7,0l-1,2.1l-2.3,0.3
			c-1.7,0.2-2.3,2.3-1.1,3.5l0.4,0.4h-3.2c0.1-0.5-0.1-1.1-0.5-1.5l-5.1-5.1c-0.7-0.7-1.9-0.7-2.6,0c-1.8,1.8-2.3,2.3-3.2,3.2
			l-3.5-3.5C18.2,24,17,23.7,15.8,24c-1.2,0.3-2,1.2-2.4,2.4l-1.8,6.8c-1.1,0.5-1.9,1.3-2.4,2.4l-6.8,1.8C0,38.1-0.8,41.2,1,43
			l3.5,3.5c-1.8,1.8-3,3-3.2,3.2c-0.7,0.7-0.7,1.9,0,2.6l5.1,5.1c0.4,0.4,0.8,0.5,1.3,0.5c0.5,0,0.9-0.2,1.3-0.5l23.7-23.7h27.5
			v21.5c0,0.5-0.4,0.9-0.9,0.9H28.6c-0.5,0-0.9-0.4-0.9-0.9V43.5c0-0.5-0.4-0.9-0.9-0.9c-0.5,0-0.9,0.4-0.9,0.9c0,0,0,0,0,0v11.6
			c0,0.7,0.3,1.4,0.8,1.9c0.5,0.5,1.2,0.8,1.9,0.8h30.6c1.5,0,2.7-1.2,2.7-2.7V32.7C62,32.2,61.6,31.8,61.1,31.8z M15.2,26.9
			c0.3-1.1,1.7-1.5,2.5-0.7l3.5,3.5c-1.3,1.3-2.7,2.7-4.2,4.2l1.1-4.1c0.1-0.5-0.2-1-0.6-1.1c-0.5-0.1-1,0.2-1.1,0.6l-1.1,3.9
			c-0.5-0.2-1.1-0.4-1.7-0.4L15.2,26.9z M12.7,34.7c1-0.3,2,0,2.7,0.7c-1.3,1.3-2.6,2.6-3.8,3.8C10,37.9,10.7,35.3,12.7,34.7z
			 M2.3,41.7c-0.4-0.4-0.5-0.9-0.4-1.5c0.1-0.5,0.5-0.9,1.1-1.1l6-1.6c0,0.6,0.2,1.2,0.4,1.7l-3.9,1.1c-0.5,0.1-0.8,0.6-0.6,1.1
			c0.1,0.5,0.6,0.8,1.1,0.6L9.9,41c-1.5,1.5-2.9,2.9-4.2,4.2L2.3,41.7z M7.7,56l-5.1-5.1c0.2-0.2,1.7-1.7,3.8-3.8c0,0,0,0,0,0l0,0
			C8,45.4,21.2,32.3,23.2,30.3l0,0c1.6-1.6-0.5,0.5,3.8-3.8l5.1,5.1L7.7,56z M48.2,30.1l-1.8,1.7h-6.6c-1.9-1.9-1.9-1.8-1.8-2
			c0.1-0.2,0-0.1,3-0.6c0.3,0,0.6-0.2,0.7-0.5c1.4-2.7,1.3-2.7,1.5-2.7c0.2,0,0.1-0.1,1.5,2.7c0.1,0.3,0.4,0.5,0.7,0.5l2.8,0.4
			C48.2,29.7,48.3,30,48.2,30.1z"/>
	</g>
</g>
</svg>
