<?xml version="1.0" encoding="utf-8"?>
<!-- Generator: Adobe Illustrator 21.1.0, SVG Export Plug-In . SVG Version: 6.00 Build 0)  -->
<svg version="1.1" id="Слой_1" xmlns="http://www.w3.org/2000/svg" xmlns:xlink="http://www.w3.org/1999/xlink" x="0px" y="0px"
	 viewBox="0 0 66 66" style="enable-background:new 0 0 66 66;" xml:space="preserve">
<style type="text/css">
	.st0{clip-path:url(#SVGID_2_);}
</style>
<g>
	<defs>
		<rect id="SVGID_1_" width="66" height="66"/>
	</defs>
	<clipPath id="SVGID_2_">
		<use xlink:href="#SVGID_1_"  style="overflow:visible;"/>
	</clipPath>
	<g class="st0">
		<g>
			<path d="M61.4,29.8L59.7,23c0.5-0.1,0.8-0.5,0.8-1v-1.1c0-2.4-1.9-4.3-4.3-4.3h-7.8v-2.3c0-1.2-1-2.1-2.1-2.1H6.5
				c-1.2,0-2.1,1-2.1,2.1V33c0,0.6,0.5,1,1,1c0.6,0,1-0.5,1-1V14.3c0,0,0-0.1,0.1-0.1h39.7c0,0,0.1,0,0.1,0.1V33c0,0.6,0.5,1,1,1
				c0.6,0,1-0.5,1-1v-1.2h12.2c0,0,0,0,0,0c0,0,0,0,0,0c1.5,0,2.8,1,3.2,2.3h-3.2c-0.6,0-1,0.5-1,1v2.2c0,1.8,1.5,3.2,3.2,3.2h1.2
				v4.5h-2.7c-0.9-2.6-3.3-4.4-6.2-4.4c-2.9,0-5.3,1.8-6.2,4.4h-0.5v-7.8c0-0.6-0.5-1-1-1c-0.6,0-1,0.5-1,1v7.8H24.9
				c-0.9-2.6-3.3-4.4-6.2-4.4c-2.9,0-5.3,1.8-6.2,4.4H6.5c0,0-0.1,0-0.1-0.1v-2.3H11c0.6,0,1-0.5,1-1s-0.5-1-1-1H1c-0.6,0-1,0.5-1,1
				s0.5,1,1,1h3.4v2.3c0,1.2,1,2.1,2.1,2.1h5.6c0,0,0,0,0,0.1c0,3.6,2.9,6.5,6.5,6.5c3.6,0,6.5-2.9,6.5-6.5c0,0,0,0,0-0.1h23.3
				c0,0,0,0,0,0.1c0,3.6,2.9,6.5,6.5,6.5c3.6,0,6.5-2.9,6.5-6.5c0,0,0,0,0-0.1H65c0.6,0,1-0.5,1-1v-11C66,32.5,64,30.2,61.4,29.8z
				 M48.4,18.6h7.8c1.3,0,2.3,1,2.3,2.3v0.1H48.4V18.6z M48.4,29.8V23h9.2l1.7,6.8H48.4z M18.7,51.8c-2.5,0-4.5-2-4.5-4.5
				c0-2.5,2-4.5,4.5-4.5s4.5,2,4.5,4.5C23.1,49.8,21.1,51.8,18.7,51.8z M55,51.8c-2.5,0-4.5-2-4.5-4.5c0-2.5,2-4.5,4.5-4.5
				s4.5,2,4.5,4.5C59.5,49.8,57.5,51.8,55,51.8z M63.9,38.6h-1.2c-0.6,0-1.2-0.5-1.2-1.2v-1.2h2.3L63.9,38.6L63.9,38.6z"/>
			<path d="M55,54c-3.7,0-6.6-3-6.7-6.6h-23c0,3.7-3,6.6-6.7,6.6C15,54,12,51,12,47.4H6.5c-1.2,0-2.3-1-2.3-2.3V43H1
				c-0.6,0-1.2-0.5-1.2-1.2s0.5-1.2,1.2-1.2H11c0.6,0,1.2,0.5,1.2,1.2S11.6,43,11,43H6.6v2.1h5.8c1-2.6,3.5-4.4,6.3-4.4
				s5.3,1.8,6.3,4.4h21.2v-7.7c0-0.6,0.5-1.2,1.2-1.2c0.6,0,1.2,0.5,1.2,1.2v7.7h0.3c1-2.6,3.5-4.4,6.3-4.4c2.8,0,5.3,1.8,6.3,4.4
				h2.5v-4.3h-1c-1.9,0-3.4-1.5-3.4-3.4v-2.2c0-0.6,0.5-1.2,1.2-1.2h3c-0.5-1.3-1.7-2.1-3-2.1l-12.1,0v1c0,0.6-0.5,1.2-1.2,1.2
				c-0.6,0-1.2-0.5-1.2-1.2V14.3H6.6V33c0,0.6-0.5,1.2-1.2,1.2S4.3,33.6,4.3,33V14.3c0-1.2,1-2.3,2.3-2.3h39.7c1.2,0,2.3,1,2.3,2.3
				v2.1h7.7c2.5,0,4.5,2,4.5,4.5V22c0,0.5-0.3,0.9-0.8,1.1l1.7,6.6c2.7,0.4,4.6,2.8,4.6,5.5v11c0,0.6-0.5,1.2-1.2,1.2h-3.3
				C61.7,51,58.7,54,55,54z M25.1,47.1h23.5l0,0.2c0,3.5,2.9,6.4,6.4,6.4s6.4-2.9,6.4-6.4l0-0.2H65c0.5,0,0.9-0.4,0.9-0.9v-11
				c0-2.6-1.9-4.9-4.5-5.3l-0.1,0l0-0.1l-1.7-7l0.1,0c0.4-0.1,0.7-0.5,0.7-0.9v-1.1c0-2.3-1.9-4.2-4.2-4.2h-7.9v-2.4
				c0-1.1-0.9-2-2-2H6.5c-1.1,0-2,0.9-2,2V33c0,0.5,0.4,0.9,0.9,0.9s0.9-0.4,0.9-0.9V14.3c0-0.1,0.1-0.2,0.2-0.2h39.7
				c0.1,0,0.2,0.1,0.2,0.2V33c0,0.5,0.4,0.9,0.9,0.9s0.9-0.4,0.9-0.9v-1.3l12.3,0c0,0,0,0,0,0c1.5,0,2.8,1,3.3,2.4l0.1,0.2h-3.4
				c-0.5,0-0.9,0.4-0.9,0.9v2.2c0,1.7,1.4,3.1,3.1,3.1h1.3v4.8h-2.9l0-0.1c-0.9-2.6-3.3-4.3-6.1-4.3c-2.7,0-5.2,1.7-6.1,4.3l0,0.1
				h-0.7v-7.9c0-0.5-0.4-0.9-0.9-0.9s-0.9,0.4-0.9,0.9v7.9H24.8l0-0.1c-0.9-2.6-3.3-4.3-6.1-4.3c-2.7,0-5.2,1.7-6.1,4.3l0,0.1h-6
				c-0.1,0-0.2-0.1-0.2-0.2v-2.4H11c0.5,0,0.9-0.4,0.9-0.9s-0.4-0.9-0.9-0.9H1c-0.5,0-0.9,0.4-0.9,0.9s0.4,0.9,0.9,0.9h3.5v2.4
				c0,1.1,0.9,2,2,2h5.7l0,0.2c0,3.6,2.9,6.4,6.4,6.4c3.5,0,6.4-2.9,6.4-6.4L25.1,47.1z M55,51.9c-2.5,0-4.6-2.1-4.6-4.6
				s2.1-4.6,4.6-4.6s4.6,2.1,4.6,4.6S57.6,51.9,55,51.9z M55,43c-2.4,0-4.4,2-4.4,4.4s2,4.4,4.4,4.4s4.4-2,4.4-4.4S57.4,43,55,43z
				 M18.7,51.9c-2.5,0-4.6-2.1-4.6-4.6s2.1-4.6,4.6-4.6c2.5,0,4.6,2.1,4.6,4.6S21.2,51.9,18.7,51.9z M18.7,43c-2.4,0-4.4,2-4.4,4.4
				s2,4.4,4.4,4.4s4.4-2,4.4-4.4S21.1,43,18.7,43z M63.9,38.7h-1.2c-0.7,0-1.3-0.6-1.3-1.3v-1.3h2.6v2.5h-0.1V38.7z M61.7,36.4v1
				c0,0.6,0.5,1,1,1h1v-2.1H61.7z M59.4,29.9H48.2v-7h9.4l0,0.1L59.4,29.9z M48.5,29.6h10.6l-1.6-6.5h-9V29.6z M58.5,21.1H48.2v-2.6
				h7.9c1.3,0,2.4,1.1,2.4,2.4V21.1z M48.5,20.8h9.8c0-1.2-1-2.1-2.1-2.1h-7.7V20.8z"/>
		</g>
		<g>
			<path d="M18.7,45.2c-1.2,0-2.1,1-2.1,2.1s1,2.1,2.1,2.1c1.2,0,2.1-1,2.1-2.1S19.8,45.2,18.7,45.2z"/>
			<path d="M18.7,49.6c-1.2,0-2.3-1-2.3-2.3s1-2.3,2.3-2.3s2.3,1,2.3,2.3S19.9,49.6,18.7,49.6z M18.7,45.3c-1.1,0-2,0.9-2,2
				s0.9,2,2,2s2-0.9,2-2S19.8,45.3,18.7,45.3z"/>
		</g>
		<g>
			<path d="M55,45.2c-1.2,0-2.1,1-2.1,2.1s1,2.1,2.1,2.1s2.1-1,2.1-2.1S56.2,45.2,55,45.2z"/>
			<path d="M55,49.6c-1.2,0-2.3-1-2.3-2.3s1-2.3,2.3-2.3s2.3,1,2.3,2.3S56.3,49.6,55,49.6z M55,45.3c-1.1,0-2,0.9-2,2s0.9,2,2,2
				s2-0.9,2-2S56.2,45.3,55,45.3z"/>
		</g>
		<g>
			<path d="M42.9,40.8H27.5c-0.6,0-1,0.5-1,1c0,0.6,0.5,1,1,1h15.4c0.6,0,1-0.5,1-1C44,41.2,43.5,40.8,42.9,40.8z"/>
			<path d="M42.9,43H27.5c-0.6,0-1.2-0.5-1.2-1.2s0.5-1.2,1.2-1.2h15.4c0.6,0,1.2,0.5,1.2,1.2S43.6,43,42.9,43z M27.5,40.9
				c-0.5,0-0.9,0.4-0.9,0.9s0.4,0.9,0.9,0.9h15.4c0.5,0,0.9-0.4,0.9-0.9s-0.4-0.9-0.9-0.9H27.5z"/>
		</g>
		<g>
			<path d="M16.5,36.4H3.2c-0.6,0-1,0.5-1,1c0,0.6,0.5,1,1,1h13.2c0.6,0,1-0.5,1-1C17.5,36.8,17,36.4,16.5,36.4z"/>
			<path d="M16.5,38.6H3.2c-0.6,0-1.2-0.5-1.2-1.2s0.5-1.2,1.2-1.2h13.2c0.6,0,1.2,0.5,1.2,1.2S17.1,38.6,16.5,38.6z M3.2,36.5
				c-0.5,0-0.9,0.4-0.9,0.9s0.4,0.9,0.9,0.9h13.2c0.5,0,0.9-0.4,0.9-0.9s-0.4-0.9-0.9-0.9H3.2z"/>
		</g>
		<g>
			<path d="M35.9,22.3c-0.4-0.4-1.1-0.4-1.5,0l-9.2,9.2l-4.8-4.8c-0.4-0.4-1.1-0.4-1.5,0c-0.4,0.4-0.4,1.1,0,1.5l5.5,5.5
				c0.2,0.2,0.5,0.3,0.7,0.3s0.5-0.1,0.7-0.3l9.9-9.9C36.3,23.4,36.3,22.8,35.9,22.3z"/>
			<path d="M25.3,34.2c-0.3,0-0.6-0.1-0.8-0.3L19,28.3c-0.2-0.2-0.3-0.5-0.3-0.8s0.1-0.6,0.3-0.8c0.4-0.4,1.2-0.4,1.6,0l4.7,4.7
				l9.1-9.1c0.4-0.4,1.2-0.4,1.6,0l0,0c0.5,0.5,0.5,1.2,0,1.6l-9.9,9.9C25.9,34,25.6,34.2,25.3,34.2z M19.8,26.6
				c-0.2,0-0.5,0.1-0.6,0.3c-0.2,0.2-0.3,0.4-0.3,0.6s0.1,0.5,0.3,0.6l5.5,5.5c0.3,0.3,0.9,0.3,1.3,0l9.9-9.9c0.4-0.4,0.4-0.9,0-1.3
				l0,0c-0.3-0.3-0.9-0.3-1.3,0l-9.3,9.3l-4.9-4.9C20.2,26.7,20,26.6,19.8,26.6z"/>
		</g>
	</g>
</g>
</svg>
