<?xml version="1.0" encoding="utf-8"?>
<!-- Generator: Adobe Illustrator 21.1.0, SVG Export Plug-In . SVG Version: 6.00 Build 0)  -->
<svg version="1.1" id="Слой_1" xmlns="http://www.w3.org/2000/svg" xmlns:xlink="http://www.w3.org/1999/xlink" x="0px" y="0px"
	 viewBox="0 0 54 54" style="enable-background:new 0 0 54 54;" xml:space="preserve">
<style type="text/css">
	.st0{clip-path:url(#SVGID_2_);}
</style>
<g>
	<defs>
		<rect id="SVGID_1_" width="54" height="54"/>
	</defs>
	<clipPath id="SVGID_2_">
		<use xlink:href="#SVGID_1_"  style="overflow:visible;"/>
	</clipPath>
	<g class="st0">
		<path d="M51.4,17.4h-0.9V7H8.7V0H4.4C2,0,0,2,0,4.4v33.1c0,2.4,2,4.4,4.4,4.4h23.5v9.6c0,1.4,1.2,2.6,2.6,2.6h20.9
			c1.4,0,2.6-1.2,2.6-2.6V20C54,18.6,52.8,17.4,51.4,17.4z M1.7,4.4c0-1.4,1.2-2.6,2.6-2.6H7v31.4H4.4c-1,0-1.9,0.3-2.6,0.9V4.4z
			 M4.4,40.1c-1.4,0-2.6-1.2-2.6-2.6s1.2-2.6,2.6-2.6h4.4V8.7h40.1v8.7h-18c-1.5-4.1-5.4-7-9.9-7c-5.8,0-10.5,4.7-10.5,10.5
			c0,5.8,4.7,10.5,10.5,10.5c2.6,0,5.1-1,7-2.7v11.4H4.4z M27.9,20h-6.1v-7.8c3.3,0.3,6.1,2.5,7.3,5.6C28.3,18.3,27.9,19.1,27.9,20z
			 M20,29.6c-4.4-0.4-7.8-4.2-7.8-8.7c0-4.5,3.4-8.2,7.8-8.7V29.6z M21.8,21.8h6.1v4.3c-1.5,2-3.7,3.2-6.1,3.4V21.8z M52.3,51.4
			c0,0.5-0.4,0.9-0.9,0.9H30.5c-0.5,0-0.9-0.4-0.9-0.9V20c0-0.5,0.4-0.9,0.9-0.9h20.9c0.5,0,0.9,0.4,0.9,0.9V51.4z"/>
		<path d="M31.4,29.6h19.2v-8.7H31.4V29.6z M33.1,22.6h15.7v5.2H33.1V22.6z"/>
		<path d="M45.3,50.5h5.2v-5.2h-5.2V50.5z M47,47h1.7v1.7H47V47z"/>
		<path d="M38.3,50.5h5.2v-5.2h-5.2V50.5z M40.1,47h1.7v1.7h-1.7V47z"/>
		<path d="M31.4,50.5h5.2v-5.2h-5.2V50.5z M33.1,47h1.7v1.7h-1.7V47z"/>
		<path d="M45.3,43.5h5.2v-5.2h-5.2V43.5z M47,40.1h1.7v1.7H47V40.1z"/>
		<path d="M38.3,43.5h5.2v-5.2h-5.2V43.5z M40.1,40.1h1.7v1.7h-1.7V40.1z"/>
		<path d="M31.4,43.5h5.2v-5.2h-5.2V43.5z M33.1,40.1h1.7v1.7h-1.7V40.1z"/>
		<path d="M45.3,36.6h5.2v-5.2h-5.2V36.6z M47,33.1h1.7v1.7H47V33.1z"/>
		<path d="M38.3,36.6h5.2v-5.2h-5.2V36.6z M40.1,33.1h1.7v1.7h-1.7V33.1z"/>
		<path d="M31.4,36.6h5.2v-5.2h-5.2V36.6z M33.1,33.1h1.7v1.7h-1.7V33.1z"/>
		<path d="M34.8,10.5H47v1.7H34.8V10.5z"/>
		<path d="M33.1,13.9H47v1.7H33.1V13.9z"/>
	</g>
</g>
</svg>
