<?xml version="1.0" encoding="utf-8"?>
<!-- Generator: Adobe Illustrator 21.1.0, SVG Export Plug-In . SVG Version: 6.00 Build 0)  -->
<svg version="1.1" id="Слой_1" xmlns="http://www.w3.org/2000/svg" xmlns:xlink="http://www.w3.org/1999/xlink" x="0px" y="0px"
	 viewBox="0 0 19 19" style="enable-background:new 0 0 19 19;" xml:space="preserve">
<g>
	<path d="M14.9,18.5c-0.8,0-1.7-0.2-2.6-0.5c-2.2-0.8-4.5-2.4-6.6-4.5C3.5,11.3,1.8,9,1.1,6.8c-0.8-2-0.8-3.6,0-4.4
		C1.1,2.2,1.2,2.1,1.4,2C2,1.3,2.8,0.5,3.8,0.5c0.7,0,1.4,0.5,2,1.4c2,2.6,1.1,3.5,0.1,4.5L5.7,6.5c-0.2,0.2-0.5,1,2.6,4.1
		c1,1,1.9,1.7,2.6,2.2c0.5,0.3,1.2,0.7,1.5,0.4l0.2-0.2c1.1-1.1,2-2,4.5,0.1c0.8,0.7,1.3,1.4,1.4,2c0.1,1-0.8,1.8-1.5,2.5
		c-0.2,0.1-0.2,0.2-0.3,0.3C16.2,18.2,15.6,18.5,14.9,18.5z M3.7,1.1c-0.8,0-1.4,0.7-2,1.3C1.7,2.5,1.5,2.6,1.4,2.8
		c-0.5,0.5-0.5,2,0.2,3.7c0.8,2.1,2.3,4.4,4.5,6.4c2,2,4.4,3.6,6.4,4.5c1.7,0.6,3.2,0.7,3.7,0.2c0.1-0.1,0.2-0.2,0.4-0.3
		c0.6-0.6,1.4-1.3,1.3-2c0-0.5-0.4-1.1-1.1-1.7c-2.1-1.7-2.7-1.1-3.7-0.1l-0.2,0.2c-0.5,0.5-1.2,0.4-2.3-0.3
		c-0.8-0.5-1.6-1.2-2.6-2.3C5.3,8.6,4.5,7,5.3,6.2l0.2-0.2c1-1.1,1.6-1.7-0.1-3.8C4.8,1.5,4.3,1.1,3.7,1.1C3.8,1.1,3.8,1.1,3.7,1.1z
		"/>
	<path d="M14.9,19c-0.9,0-1.9-0.3-2.8-0.5c-2.3-0.9-4.7-2.5-6.8-4.7C3,11.5,1.3,9.1,0.6,6.9C-0.2,4.8-0.2,3,0.7,2.1
		C0.7,1.9,0.8,1.8,1,1.6C1.8,0.8,2.6,0,3.8,0c0.8,0,1.7,0.5,2.4,1.6c2.3,2.9,1.1,4.1,0,5.2L6.1,6.9c0,0,0,0.8,2.6,3.4
		c0.9,0.9,1.8,1.7,2.5,2.1c0.5,0.3,0.8,0.4,0.9,0.4l0.2-0.2c1.1-1.1,2.3-2.3,5.2,0c0.9,0.8,1.5,1.6,1.5,2.4c0.1,1.3-1.1,2.4-1.7,2.9
		L17.2,18c0,0,0,0-0.1,0.1c0,0.1-0.1,0.1-0.1,0.1C16.4,18.7,15.7,19,14.9,19z M2.1,2.7C2.1,2.8,2,2.9,1.9,2.9l0,0.1L1.8,3.1
		C1.5,3.4,1.4,4.5,2.1,6.3c0.7,2,2.3,4.2,4.3,6.2c1.9,1.9,4.2,3.5,6.3,4.3c1.7,0.6,2.9,0.5,3.2,0.3c0.1-0.1,0.2-0.2,0.4-0.4l0.1-0.1
		c0.5-0.5,1-1,1-1.4c0-0.4-0.3-0.8-0.9-1.3c-1.8-1.5-2.1-1.1-3-0.1l-0.2,0.2c-0.4,0.4-1.3,0.8-2.9-0.2c-0.8-0.5-1.7-1.3-2.7-2.3
		c-2.1-2.1-3-3.5-3-4.6c0-0.4,0.2-0.8,0.5-1l0.2-0.2C6.1,4.6,6.4,4.3,5,2.5C4.4,1.7,4,1.6,3.7,1.6c-0.5,0-1,0.5-1.5,1L2.1,2.7z"/>
</g>
</svg>
