<?xml version="1.0" encoding="utf-8"?>
<!-- Generator: Adobe Illustrator 21.1.0, SVG Export Plug-In . SVG Version: 6.00 Build 0)  -->
<svg version="1.1" id="Слой_1" xmlns="http://www.w3.org/2000/svg" xmlns:xlink="http://www.w3.org/1999/xlink" x="0px" y="0px"
	 viewBox="0 0 16 16" style="enable-background:new 0 0 16 16;" xml:space="preserve">
<path d="M13.7,6.7c0-2.3-1.9-4.3-4.3-4.6c0,0-0.1,0-0.2,0C9.1,2.1,9,2,8.9,2C8.4,2,8.3,2.4,8.2,2.6c0,0.2,0,0.4,0.1,0.5
	C8.5,3.3,8.8,3.3,9,3.4c0.1,0,0.1,0,0.2,0c2.1,0.5,2.9,1.2,3.2,3.4c0,0.1,0,0.1,0,0.2c0,0.3,0,0.8,0.6,0.8l0,0c0,0,0.1,0,0.2,0
	c0.5-0.1,0.5-0.6,0.5-0.8C13.7,6.8,13.7,6.8,13.7,6.7C13.7,6.7,13.7,6.7,13.7,6.7z"/>
<path d="M8.7,1.3c0.1,0,0.1,0,0.2,0C12.4,1.8,14,3.5,14.5,7c0,0.1,0,0.1,0,0.2c0,0.3,0,0.9,0.6,0.9l0,0c0.2,0,0.3-0.1,0.5-0.2
	c0.2-0.2,0.2-0.5,0.2-0.7c0-0.1,0-0.1,0-0.2c0-3.6-3.1-6.9-6.7-7c0,0,0,0,0,0c0,0,0,0,0,0c0,0-0.1,0-0.1,0C8.8,0,8.7,0,8.7,0
	C8.1,0,8,0.4,8,0.7C7.9,1.2,8.5,1.3,8.7,1.3z"/>
<path d="M14.3,11.6c-0.1-0.1-0.2-0.1-0.2-0.2c-0.4-0.3-0.8-0.6-1.2-0.9c-0.1-0.1-0.2-0.1-0.2-0.2c-0.5-0.4-1-0.5-1.4-0.5
	c-0.6,0-1.1,0.3-1.5,0.9c-0.2,0.3-0.4,0.4-0.7,0.4c-0.2,0-0.3,0-0.6-0.1c-1.6-0.7-2.8-1.9-3.5-3.4C4.8,7,4.9,6.5,5.4,6.1
	c0.3-0.2,0.9-0.6,0.9-1.4c0-0.9-2-3.5-2.8-3.8c-0.3-0.1-0.7-0.1-1.1,0c-0.9,0.3-1.6,0.9-2,1.6c-0.3,0.7-0.3,1.5,0,2.4
	c1,2.5,2.5,4.7,4.3,6.5c1.8,1.8,4,3.2,6.5,4.3c0.2,0.1,0.5,0.2,0.6,0.2c0.1,0,0.1,0,0.1,0c0,0,0,0,0.1,0l0,0c0,0,0,0,0,0
	c1.2,0,2.6-1.1,3.1-2.3C15.6,12.6,14.9,12,14.3,11.6z"/>
<path d="M9.3,4.2c-0.2,0-0.6,0-0.8,0.4C8.4,4.8,8.4,5,8.5,5.1c0.1,0.2,0.4,0.3,0.6,0.3c0.8,0.1,1.2,0.6,1.3,1.4
	c0,0.4,0.3,0.7,0.6,0.7h0c0,0,0,0,0.1,0c0.4,0,0.6-0.3,0.6-0.9c0-0.6-0.3-1.2-0.8-1.7C10.4,4.4,9.8,4.1,9.3,4.2z"/>
</svg>
