<?xml version="1.0" encoding="utf-8"?>
<!-- Generator: Adobe Illustrator 21.1.0, SVG Export Plug-In . SVG Version: 6.00 Build 0)  -->
<svg version="1.1" id="Слой_1" xmlns="http://www.w3.org/2000/svg" xmlns:xlink="http://www.w3.org/1999/xlink" x="0px" y="0px"
	 viewBox="0 0 34 34" style="enable-background:new 0 0 34 34;" xml:space="preserve">
<g id="XMLID_1_">
	<g>
		<path d="M11.9,6.1c1,0,1.9,0,3.4,0l-1.6-3.1c-0.3-0.6-1-1-1.7-1.1c0,0-0.1,0-0.1,0c-1.5,0-2.6,1.6-1.8,3
			C10.4,5.7,11.1,6.1,11.9,6.1z M18,22V8.1c-0.7,0-1.3,0-2,0V22c0.1,0,0.3,0,0.4,0H18z M20,12h10V9.1c0-0.6-0.4-1-1-1
			c-0.3,0-8.7,0-9,0V12z M20,22h1c1.4,0,2.5,0.9,2.9,2.1l4.2-4.3V14h-8V22z M21.8,2c-0.7,0-1.4,0.4-1.7,1.1l-1.7,3.1
			c0.4,0,3,0,3.5,0c0.8,0,1.4-0.4,1.8-1.1C24.5,3.6,23.4,1.9,21.8,2z M4,32v-7v-3H2v10H4z M6,14v6.9c1.2-0.8,2.6-1.3,4-1.3
			s2.9,0.4,4,1.3V14H6z M6,31.1c2,0.6,3.9,0.9,6.1,0.9H21c1.6,0,3.1-0.7,4-2c0,0,0,0,0,0l6.8-8.3c0.1-0.2,0.2-0.4,0.2-0.6
			c0-0.9-1.1-1.3-1.7-0.7c0,0,0,0,0,0v0c-0.2,0.2-6.2,6.4-6.4,6.7c-0.6,0.6-1.4,0.9-2.2,0.9h-7.7c-0.6,0-1-0.4-1-1c0-0.6,0.4-1,1-1
			H21c0.6,0,1-0.4,1-1c0-0.6-0.4-1-1-1h-4.6c-1.1,0-2.2-0.4-3.1-1.2c-1.9-1.7-4.8-1.7-6.6,0L6,23.5V25V31.1z M8.4,6.1
			C6.8,3.3,8.9-0.1,12.1,0c1.4,0.1,2.7,0.9,3.4,2.1l1.5,2.7l1.5-2.7c0.7-1.2,1.9-2,3.4-2.1c3.2-0.1,5.3,3.3,3.7,6.1H29
			c1.6,0,3,1.3,3,3V13c0,0.5-0.4,1-1,1h-1v4.2c2-0.7,4,0.8,4,2.8c0,0.7-0.2,1.3-0.6,1.8c0,0-6.8,8.4-6.9,8.4C25.2,33,23.2,34,21,34
			h-8.9C10,34,7.9,33.7,6,33.2C5.9,33.7,5.5,34,5,34H1c-0.6,0-1-0.5-1-1V21c0-0.5,0.4-1,1-1h3v-6H3c-0.5,0-1-0.5-1-1V9.1
			c0-1.6,1.3-3,3-3H8.4z M14,8.1c-0.1,0-9,0-9,0c-0.6,0-1,0.4-1,1V12v0h10V8.1z"/>
	</g>
	<g>
	</g>
</g>
</svg>
