<?xml version="1.0" encoding="utf-8"?>
<!-- Generator: Adobe Illustrator 21.1.0, SVG Export Plug-In . SVG Version: 6.00 Build 0)  -->
<svg version="1.1" id="Слой_1" xmlns="http://www.w3.org/2000/svg" xmlns:xlink="http://www.w3.org/1999/xlink" x="0px" y="0px"
	 viewBox="0 0 26 26" style="enable-background:new 0 0 26 26;" xml:space="preserve">
<style type="text/css">
	.st0{display:none;}
</style>
<g>
	<g id="XMLID_1_">
		<g>
			<path class="st0" d="M17.7,20.1l3.3-3.3c-1.8-1.8-4.6-1.8-6.4,0c-1.8,1.8-1.8,4.6,0,6.4c1.8,1.8,4.6,1.8,6.4,0
				c1.3-1.3,1.7-3.4,0.9-5.1l-3.7,3.7c-0.3,0.3-0.7,0.3-1,0.1c0,0-0.1-0.1-0.1-0.1l-1.6-1.7c-0.3-0.3-0.3-0.8,0-1.1
				c0.3-0.3,0.8-0.3,1.1,0L17.7,20.1z M17.8,24.7c-1.2,0-2.4-0.5-3.3-1.4c-1.8-1.8-1.8-4.8,0-6.7c1.8-1.8,4.8-1.8,6.7,0l0.1,0.1
				l-3.6,3.6l-1.2-1.2C16.3,19,16.2,19,16,19c-0.2,0-0.3,0.1-0.4,0.2c-0.1,0.1-0.2,0.2-0.2,0.4c0,0.1,0.1,0.3,0.2,0.4l1.6,1.6
				c0.1,0.1,0.2,0.2,0.4,0.2s0.3-0.1,0.4-0.2l3.9-3.9L22,18c0.9,1.8,0.5,3.9-0.9,5.4C20.2,24.2,19,24.7,17.8,24.7z"/>
			<path d="M9.5,7.5c0,0.3,0.2,0.6,0.5,0.7c0.1,0.1,0.2,0.1,0.3,0.1c0.2,0,0.4-0.1,0.6-0.2c0.1-0.2,0.2-0.4,0.2-0.6
				c0-0.3-0.1-0.5-0.2-0.6c-0.2-0.3-0.6-0.3-0.9-0.2C9.7,6.9,9.5,7.2,9.5,7.5z M12.2,7.4c0,1-0.9,1.9-1.9,1.9S8.4,8.4,8.4,7.4
				s0.8-1.9,1.9-1.9S12.2,6.4,12.2,7.4z"/>
			<path d="M14,4.6h2.5L14,2.1V4.6z M14.5,23.3c0.9,0.9,2.1,1.4,3.3,1.4c1.2,0,2.4-0.5,3.3-1.3c1.4-1.5,1.8-3.6,0.9-5.4l-0.1-0.3
				L18,21.6c-0.1,0.1-0.2,0.2-0.4,0.2s-0.3-0.1-0.4-0.2L15.6,20c-0.1-0.1-0.2-0.3-0.2-0.4c0-0.2,0.1-0.3,0.2-0.4
				c0.1-0.1,0.2-0.2,0.4-0.2c0.2,0,0.3,0,0.5,0.1l1.2,1.2l3.6-3.6l-0.1-0.1c-1.9-1.8-4.9-1.8-6.7,0C12.7,18.5,12.7,21.5,14.5,23.3z
				 M3.3,19.6h8.6l0.2-0.1c0.1-1.4,0.7-2.7,1.7-3.7l0.3-0.3H6.7c-0.3,0-0.6-0.3-0.6-0.6V12c0-0.2,0.1-0.5,0.4-0.4
				c1.9-0.7,3.6-1.1,5.8-0.6c0.6,0.1,1.2,0.3,1.9,0.6c0.2,0,0.4,0.3,0.4,0.5v2.6v0.5l0.3-0.2c0.7-0.4,1.5-0.7,2.3-0.8h0.2V5.8h-3.9
				c-0.3,0-0.6-0.3-0.6-0.6V1.3H3.3V19.6z M13.3,12.3c-0.8-0.3-1.5-0.5-2.2-0.6h-0.2v0.4c0,0.3-0.3,0.6-0.6,0.6s-0.6-0.3-0.6-0.6
				v-0.4H9.5c-0.7,0.1-1.4,0.3-2.2,0.6H7.2v2h6.2v-2H13.3z M12,20.8H2.7c-0.3,0-0.6-0.3-0.6-0.6V0.8c0-0.3,0.3-0.6,0.6-0.6h10.7
				c0.1,0,0.3,0.1,0.4,0.2l4.4,4.4c0.2,0.1,0.2,0.3,0.2,0.5v8.9h0.2c1.3,0.2,2.4,0.8,3.3,1.7L22,16l1-1.1c0.2-0.2,0.6-0.2,0.8,0
				c0.1,0.1,0.2,0.3,0.2,0.4c0,0.2-0.1,0.3-0.2,0.4l-1.2,1.2l0.1,0.1c1.4,2.3,1,5.2-0.9,7.1c-1.1,1.1-2.5,1.7-4.1,1.7
				c-1.5,0-3-0.6-4.1-1.7c-0.8-0.8-1.4-1.9-1.6-3.1V20.8z"/>
		</g>
	</g>
</g>
</svg>
