<?xml version="1.0" encoding="utf-8"?>
<!-- Generator: Adobe Illustrator 21.1.0, SVG Export Plug-In . SVG Version: 6.00 Build 0)  -->
<svg version="1.1" id="Слой_1" xmlns="http://www.w3.org/2000/svg" xmlns:xlink="http://www.w3.org/1999/xlink" x="0px" y="0px"
	 viewBox="0 0 42.5 43.5" style="enable-background:new 0 0 42.5 43.5;" xml:space="preserve">
<g>
	<path d="M42.5,8.2V8.1c0,0,0-0.1-0.1-0.1c0-0.1,0-0.1-0.1-0.1L27.8,0.1L27.5,0L0.7,4C0.6,4,0.6,4,0.6,4L0.4,3.9L0.2,4.1L0.1,4.2
		c0,0.1,0,0.1,0,0.1v0.1c0,0.1,0,0.1,0,0.1v0.1l0.8,28.2v0.1l0.2-0.1L0.8,33c0.1,0,0.1,0,0.1,0.1L1,33.2L1.2,33v-0.1l0,0l6.1,4.8
		L1.2,33l-0.1,0.3L14,43.4l0.1,0.1h0.1c0,0,0,0,0.1,0c0,0,0.1,0,0.1,0.1l27.2-5.5c0.1-0.1,0.1-0.1,0.2-0.1l0.3-0.3v-0.1l-0.2-0.1
		h0.3v-0.2l0.4-28.8L42.5,8.2z M26.8,1.4V27L9.7,12l2-0.2c0.2-0.1,0.3-0.3,0.3-0.5c-0.1-0.1-0.1-0.2-0.2-0.3
		c-0.1-0.1-0.2-0.1-0.3-0.1l-2.7,0.4l-0.2,0.1l-0.1,0.1l-0.1,0.3l0.1,2.8c0,0.2,0.2,0.4,0.4,0.4c0.1,0,0.2-0.1,0.2-0.2
		c0.1-0.1,0.1-0.2,0.1-0.3v-1.9l17.1,15L2,32.1L1.3,5.2L26.8,1.4z M26.1,28.7l-7.9,8.9l-1-0.8c-0.1-0.1-0.2-0.1-0.3-0.1
		c-0.1,0.1-0.2,0.1-0.3,0.2c-0.1,0.2-0.1,0.5,0.1,0.6l1.4,1l0.1,0.1h0.1h0.1l2.8-0.5c0.2-0.1,0.3-0.3,0.3-0.5
		c-0.1-0.2-0.3-0.3-0.5-0.3l-1.5,0.3l7.9-9L40,37l-25.6,5.1L2.8,33L26.1,28.7z M28,27.8l8.7-12v1.6c0,0.1,0,0.2,0.1,0.3
		c0.1,0.1,0.2,0.1,0.3,0.1c0.1,0,0.2-0.1,0.3-0.1c0.1,0,0.1-0.1,0.1-0.2v-0.1v-2.8v-0.1v-0.1l-1.6-1c-0.1,0-0.2,0-0.3,0
		c-0.1,0-0.1,0.1-0.2,0.2c0,0.1,0,0.2,0,0.3c0,0.1,0.1,0.1,0.2,0.2l1.1,0.6l-8.8,11.9V1.7l13.3,7.2l-0.4,27.4L28,27.8z M27.3,0.3
		L27.3,0.3L27.3,0.3L27.3,0.3z"/>
	<path d="M31.5,29.2c-0.2,0-0.3,0.1-0.3,0.3s0.2,0.3,0.3,0.3c0.2,0,0.3-0.1,0.3-0.3S31.6,29.2,31.5,29.2z"/>
</g>
</svg>
