<?xml version="1.0" encoding="utf-8"?>
<!-- Generator: Adobe Illustrator 21.1.0, SVG Export Plug-In . SVG Version: 6.00 Build 0)  -->
<svg version="1.1" id="Слой_1" xmlns="http://www.w3.org/2000/svg" xmlns:xlink="http://www.w3.org/1999/xlink" x="0px" y="0px"
	 viewBox="0 0 262.6 358.3" style="enable-background:new 0 0 262.6 358.3;" xml:space="preserve">
<path d="M0,183.8h36.3V0h90c21.2,0,39.2,1.8,54,5.4s28,9.3,39.7,17c13.3,9,23.7,20.4,31.2,34.6c7.5,14.2,11.3,31,11.3,51
	c0,15.4-2.8,30-8.4,44s-13.2,26-22.8,35.8c-12.3,12-26.8,21-43.5,27.4s-38,9.5-63.5,9.5H84V256h161.3v41H84v61.4H36.3V297H0v-41
	h36.3v-31.7H0V183.8z M213,109c0-12.3-2-23-6.4-32c-4.3-9-10.7-16.5-19.2-22.3c-8-5-16.7-8.7-26.6-10.8c-10-2-22.4-3-37.4-3H84V184
	h32.8c19,0,34.6-1.6,46.3-5c11.8-3.2,21.8-8.8,30-16.6c6.8-7.2,12-15,15-23.5c3.2-8.4,5-18.5,5-30L213,109z"/>
</svg>
