<?xml version="1.0" encoding="utf-8"?>
<!-- Generator: Adobe Illustrator 21.1.0, SVG Export Plug-In . SVG Version: 6.00 Build 0)  -->
<svg version="1.1" id="Слой_1" xmlns="http://www.w3.org/2000/svg" xmlns:xlink="http://www.w3.org/1999/xlink" x="0px" y="0px"
	 viewBox="0 0 18.4 18.5" style="enable-background:new 0 0 18.4 18.5;" xml:space="preserve">
<g>
	<path d="M7.2,14.3c1.7,0,3.3-0.6,4.5-1.6l5.5,5.5c0.1,0.1,0.3,0.2,0.5,0.2c0.2,0,0.3-0.1,0.5-0.2c0.3-0.3,0.3-0.7,0-0.9l-5.5-5.5
		c1-1.2,1.6-2.8,1.6-4.5c0-3.9-3.2-7.1-7.1-7.1c-3.9,0-7.1,3.2-7.1,7.1C0.1,11.1,3.3,14.3,7.2,14.3z M7.2,1.4C10.4,1.4,13,4,13,7.2
		c0,3.2-2.6,5.8-5.8,5.8C4,13,1.4,10.4,1.4,7.2C1.4,4,4,1.4,7.2,1.4z"/>
	<path d="M17.7,18.5c-0.2,0-0.4-0.1-0.5-0.2l-5.4-5.4c-1.3,1-2.8,1.6-4.5,1.6c-4,0-7.2-3.2-7.2-7.2S3.2,0,7.2,0
		c1.9,0,3.7,0.8,5.1,2.1c1.4,1.4,2.1,3.2,2.1,5.1c0,1.6-0.6,3.2-1.6,4.5l5.4,5.4c0.1,0.1,0.2,0.3,0.2,0.5c0,0.2-0.1,0.4-0.2,0.6
		C18.1,18.4,17.9,18.5,17.7,18.5z M11.7,12.5L11.7,12.5l5.6,5.6c0.1,0.1,0.2,0.2,0.4,0.2c0.2,0,0.3,0,0.4-0.2
		c0.1-0.1,0.2-0.2,0.2-0.4c0-0.1-0.1-0.3-0.2-0.3l-5.6-5.6l0.1-0.1c1-1.2,1.6-2.8,1.6-4.4c0-1.9-0.7-3.6-2-4.9c-1.3-1.3-3.1-2-4.9-2
		c-3.8,0-7,3.1-7,7s3.1,7,7,7C8.9,14.2,10.4,13.6,11.7,12.5L11.7,12.5z M7.2,13.1c-3.3,0-5.9-2.7-5.9-5.9s2.7-5.9,5.9-5.9
		s5.9,2.7,5.9,5.9S10.5,13.1,7.2,13.1z M7.2,1.5c-3.1,0-5.7,2.5-5.7,5.7s2.5,5.7,5.7,5.7s5.7-2.5,5.7-5.7S10.3,1.5,7.2,1.5z"/>
</g>
</svg>
