<?xml version="1.0" encoding="utf-8"?>
<!-- Generator: Adobe Illustrator 21.1.0, SVG Export Plug-In . SVG Version: 6.00 Build 0)  -->
<svg version="1.1" id="Слой_1" xmlns="http://www.w3.org/2000/svg" xmlns:xlink="http://www.w3.org/1999/xlink" x="0px" y="0px"
	 viewBox="0 0 12.9 12.4" style="enable-background:new 0 0 12.9 12.4;" xml:space="preserve">
<path d="M5.6,0.6c0.4-0.7,1.4-0.7,1.8,0L8.6,3C8.7,3.3,9,3.5,9.3,3.6L12.1,4c0.8,0.1,1.1,1.1,0.6,1.7l-2,1.9
	c-0.2,0.2-0.3,0.6-0.3,0.9l0.5,2.7c0.1,0.8-0.7,1.4-1.5,1.1L6.9,11c-0.3-0.2-0.6-0.2-0.9,0l-2.4,1.3C2.8,12.7,2,12,2.1,11.2l0.5-2.7
	c0.1-0.3-0.1-0.7-0.3-0.9l-2-1.9C-0.3,5.1,0,4.1,0.9,4l2.7-0.4c0.3,0,0.6-0.3,0.8-0.5L5.6,0.6z"/>
</svg>
