<?xml version="1.0" encoding="utf-8"?>
<!-- Generator: Adobe Illustrator 21.1.0, SVG Export Plug-In . SVG Version: 6.00 Build 0)  -->
<svg version="1.1" id="Слой_1" xmlns="http://www.w3.org/2000/svg" xmlns:xlink="http://www.w3.org/1999/xlink" x="0px" y="0px"
	 viewBox="0 0 24.7 14.1" style="enable-background:new 0 0 24.7 14.1;" xml:space="preserve">
<path d="M21.3,9c0.8,0.8,1.7,1.6,2.4,2.5c0.3,0.4,0.6,0.8,0.9,1.3c0.3,0.7,0,1.4-0.5,1.4l-3.6,0c-0.9,0.1-1.7-0.3-2.3-0.9
	c-0.5-0.5-1-1.1-1.4-1.6c-0.2-0.2-0.4-0.4-0.6-0.6c-0.5-0.3-0.9-0.2-1.2,0.3c-0.3,0.5-0.4,1.1-0.4,1.7c0,0.9-0.3,1.1-1.1,1.1
	c-1.8,0.1-3.5-0.2-5.2-1.1c-1.4-0.8-2.5-2-3.5-3.3C2.8,7.2,1.4,4.4,0.1,1.5c-0.3-0.6-0.1-1,0.6-1c1.2,0,2.3,0,3.5,0
	c0.5,0,0.8,0.3,1,0.7c0.6,1.6,1.4,3.1,2.4,4.5c0.3,0.4,0.5,0.7,0.9,1C9,7,9.3,6.9,9.5,6.4c0.1-0.3,0.2-0.6,0.2-0.9
	c0.1-1.1,0.1-2.2-0.1-3.3C9.5,1.5,9.1,1.1,8.5,0.9C8.1,0.9,8.2,0.8,8.3,0.6C8.6,0.2,8.9,0,9.4,0h4.1c0.6,0.1,0.8,0.4,0.9,1.1l0,4.6
	c0,0.3,0.1,1,0.6,1.2c0.4,0.1,0.6-0.2,0.8-0.4c1-1,1.7-2.3,2.3-3.6c0.3-0.6,0.5-1.1,0.7-1.7c0.2-0.4,0.4-0.6,0.9-0.6l3.9,0
	c0.1,0,0.2,0,0.3,0c0.7,0.1,0.8,0.4,0.6,1.1c-0.3,1-0.9,1.9-1.6,2.7c-0.7,0.9-1.4,1.8-2,2.7C20.5,7.8,20.5,8.2,21.3,9z"/>
</svg>
