<?xml version="1.0" encoding="utf-8"?>
<!-- Generator: Adobe Illustrator 21.1.0, SVG Export Plug-In . SVG Version: 6.00 Build 0)  -->
<svg version="1.1" id="Слой_1" xmlns="http://www.w3.org/2000/svg" xmlns:xlink="http://www.w3.org/1999/xlink" x="0px" y="0px"
	 viewBox="0 0 15 15" style="enable-background:new 0 0 15 15;" xml:space="preserve">
<path d="M7.5,3.8H5.6v1.9H3.8v1.9h1.9v1.9h1.9V7.5h1.9V5.6H7.5V3.8z M14.7,13L12,10.3c0.7-1.1,1.2-2.4,1.2-3.8
	c0-3.6-2.9-6.6-6.6-6.6C2.9,0,0,2.9,0,6.6c0,3.6,2.9,6.6,6.6,6.6c1.4,0,2.7-0.4,3.8-1.2l2.7,2.7c0.5,0.5,1.2,0.5,1.6,0
	C15.1,14.2,15.1,13.5,14.7,13z M6.6,11.3c-2.6,0-4.7-2.1-4.7-4.7S4,1.9,6.6,1.9c2.6,0,4.7,2.1,4.7,4.7C11.3,9.2,9.2,11.3,6.6,11.3z"
	/>
</svg>
