<svg width="45" height="15" viewBox="0 0 45 15" fill="none" xmlns="http://www.w3.org/2000/svg">
<path d="M19.0716 14.0045H15.4941L17.7439 0.210938H21.3214L19.0716 14.0045Z" fill="#005BAC"/>
<path d="M12.4659 0.210938L9.03592 9.68943L8.63022 7.66096L7.41314 1.4649C7.41314 1.4649 7.26562 0.210938 5.7166 0.210938H0.0737625L0 0.432225C0 0.432225 1.73342 0.801037 3.76189 2.01812L6.8968 14.0045H10.6218L16.3384 0.210938H12.4659Z" fill="#005BAC"/>
<path d="M40.7187 14.0045H44.0012L41.1244 0.210938H38.2477C36.92 0.210938 36.588 1.24361 36.588 1.24361L31.2402 14.0045H34.9652L35.7029 11.9392H40.2762L40.7187 14.0045ZM36.7724 9.09933L38.6534 3.93595L39.7229 9.09933H36.7724Z" fill="#005BAC"/>
<path d="M31.4935 3.54061L32.0098 0.590102C32.0098 0.590102 30.4239 0 28.7642 0C26.9939 0 22.7526 0.774508 22.7526 4.57328C22.7526 8.15077 27.7316 8.18765 27.7316 10.0686C27.7316 11.9495 23.2689 11.6176 21.7937 10.4374L21.2773 13.5354C21.2773 13.5354 22.8632 14.3099 25.3343 14.3099C27.7685 14.3099 31.4935 13.056 31.4935 9.58914C31.4935 6.01165 26.4776 5.67972 26.4776 4.09383C26.4776 2.47105 29.9813 2.69234 31.4935 3.54061Z" fill="#005BAC"/>
<path d="M8.63022 7.66096L7.41314 1.4649C7.41314 1.4649 7.26562 0.210938 5.7166 0.210938H0.0737625L0 0.432225C0 0.432225 2.72922 0.985444 5.31091 3.12456C7.81884 5.11615 8.63022 7.66096 8.63022 7.66096Z" fill="#F6AC1A"/>
</svg>
