<svg width="46" height="36" viewBox="0 0 46 36" fill="none" xmlns="http://www.w3.org/2000/svg">
<path d="M8.37341 35.6193V33.2501C8.37341 32.3419 7.8206 31.7496 6.87293 31.7496C6.3991 31.7496 5.88578 31.9076 5.53041 32.4209C5.254 31.9865 4.85914 31.7496 4.26685 31.7496C3.87199 31.7496 3.47713 31.8681 3.16124 32.3024V31.8286H2.33203V35.6193H3.16124V33.5265C3.16124 32.8552 3.51661 32.5393 4.06942 32.5393C4.62223 32.5393 4.89863 32.8947 4.89863 33.5265V35.6193H5.72784V33.5265C5.72784 32.8552 6.1227 32.5393 6.63602 32.5393C7.18882 32.5393 7.46523 32.8947 7.46523 33.5265V35.6193H8.37341ZM20.6536 31.8286H19.3111V30.6835H18.4818V31.8286H17.7316V32.5788H18.4818V34.3162C18.4818 35.1849 18.8372 35.6982 19.7849 35.6982C20.1403 35.6982 20.5351 35.5798 20.8115 35.4218L20.5746 34.7111C20.3377 34.869 20.0613 34.9085 19.8639 34.9085C19.469 34.9085 19.3111 34.6716 19.3111 34.2767V32.5788H20.6536V31.8286ZM27.6821 31.7496C27.2083 31.7496 26.8924 31.9865 26.695 32.3024V31.8286H25.8657V35.6193H26.695V33.487C26.695 32.8552 26.9714 32.4999 27.4847 32.4999C27.6426 32.4999 27.8401 32.5393 27.998 32.5788L28.2349 31.7891C28.077 31.7496 27.8401 31.7496 27.6821 31.7496ZM17.0603 32.1445C16.6655 31.8681 16.1127 31.7496 15.5204 31.7496C14.5727 31.7496 13.9409 32.2235 13.9409 32.9737C13.9409 33.6055 14.4148 33.9608 15.244 34.0793L15.6388 34.1188C16.0732 34.1978 16.3101 34.3162 16.3101 34.5137C16.3101 34.7901 15.9942 34.9875 15.4414 34.9875C14.8886 34.9875 14.4543 34.7901 14.1779 34.5926L13.783 35.2244C14.2174 35.5403 14.8096 35.6982 15.4019 35.6982C16.5075 35.6982 17.1393 35.1849 17.1393 34.4742C17.1393 33.8029 16.626 33.4475 15.8363 33.3291L15.4414 33.2896C15.086 33.2501 14.8096 33.1711 14.8096 32.9342C14.8096 32.6578 15.086 32.4999 15.5204 32.4999C15.9942 32.4999 16.4681 32.6973 16.705 32.8157L17.0603 32.1445ZM39.0936 31.7496C38.6198 31.7496 38.3039 31.9865 38.1064 32.3024V31.8286H37.2772V35.6193H38.1064V33.487C38.1064 32.8552 38.3828 32.4999 38.8962 32.4999C39.0541 32.4999 39.2515 32.5393 39.4095 32.5788L39.6464 31.7891C39.4885 31.7496 39.2515 31.7496 39.0936 31.7496ZM28.5113 33.7239C28.5113 34.869 29.301 35.6982 30.5251 35.6982C31.0779 35.6982 31.4728 35.5798 31.8676 35.2639L31.4728 34.5926C31.1569 34.8295 30.841 34.948 30.4856 34.948C29.8144 34.948 29.3405 34.4742 29.3405 33.7239C29.3405 33.0132 29.8144 32.5393 30.4856 32.4999C30.841 32.4999 31.1569 32.6183 31.4728 32.8552L31.8676 32.184C31.4728 31.8681 31.0779 31.7496 30.5251 31.7496C29.301 31.7496 28.5113 32.5788 28.5113 33.7239ZM36.1716 33.7239V31.8286H35.3424V32.3024C35.066 31.9471 34.6712 31.7496 34.1578 31.7496C33.0917 31.7496 32.2625 32.5788 32.2625 33.7239C32.2625 34.869 33.0917 35.6982 34.1578 35.6982C34.7106 35.6982 35.1055 35.5008 35.3424 35.1454V35.6193H36.1716V33.7239ZM33.1312 33.7239C33.1312 33.0527 33.5655 32.4999 34.2763 32.4999C34.9476 32.4999 35.4214 33.0132 35.4214 33.7239C35.4214 34.3952 34.9476 34.948 34.2763 34.948C33.5655 34.9085 33.1312 34.3952 33.1312 33.7239ZM23.2202 31.7496C22.1146 31.7496 21.3248 32.5393 21.3248 33.7239C21.3248 34.9085 22.1146 35.6982 23.2597 35.6982C23.8125 35.6982 24.3653 35.5403 24.7996 35.1849L24.4048 34.5926C24.0889 34.8295 23.694 34.9875 23.2992 34.9875C22.7858 34.9875 22.2725 34.7506 22.1541 34.0793H24.9576V33.7634C24.9971 32.5393 24.2863 31.7496 23.2202 31.7496ZM23.2202 32.4604C23.7335 32.4604 24.0889 32.7763 24.1678 33.3686H22.1935C22.2725 32.8552 22.6279 32.4604 23.2202 32.4604ZM43.7924 33.7239V30.3281H42.9632V32.3024C42.6868 31.9471 42.292 31.7496 41.7787 31.7496C40.7125 31.7496 39.8833 32.5788 39.8833 33.7239C39.8833 34.869 40.7125 35.6982 41.7787 35.6982C42.3315 35.6982 42.7263 35.5008 42.9632 35.1454V35.6193H43.7924V33.7239ZM40.752 33.7239C40.752 33.0527 41.1864 32.4999 41.8971 32.4999C42.5684 32.4999 43.0422 33.0132 43.0422 33.7239C43.0422 34.3952 42.5684 34.948 41.8971 34.948C41.1864 34.9085 40.752 34.3952 40.752 33.7239ZM13.0328 33.7239V31.8286H12.2036V32.3024C11.9272 31.9471 11.5323 31.7496 11.019 31.7496C9.95285 31.7496 9.12364 32.5788 9.12364 33.7239C9.12364 34.869 9.95285 35.6982 11.019 35.6982C11.5718 35.6982 11.9666 35.5008 12.2036 35.1454V35.6193H13.0328V33.7239ZM9.95285 33.7239C9.95285 33.0527 10.3872 32.4999 11.0979 32.4999C11.7692 32.4999 12.243 33.0132 12.243 33.7239C12.243 34.3952 11.7692 34.948 11.0979 34.948C10.3872 34.9085 9.95285 34.3952 9.95285 33.7239Z" fill="black"/>
<path d="M29.2194 3.04297H16.7812V25.3921H29.2194V3.04297Z" fill="#FF5F00"/>
<path d="M17.5713 14.215C17.5713 9.6741 19.7036 5.64651 22.9809 3.04043C20.5723 1.1451 17.5318 0 14.215 0C6.35726 0 0 6.35726 0 14.215C0 22.0727 6.35726 28.43 14.215 28.43C17.5318 28.43 20.5723 27.2849 22.9809 25.3896C19.7036 22.823 17.5713 18.7559 17.5713 14.215Z" fill="#EB001B"/>
<path d="M45.9985 14.215C45.9985 22.0727 39.6412 28.43 31.7835 28.43C28.4667 28.43 25.4262 27.2849 23.0176 25.3896C26.3344 22.7835 28.4272 18.7559 28.4272 14.215C28.4272 9.6741 26.2949 5.64651 23.0176 3.04043C25.4262 1.1451 28.4667 0 31.7835 0C39.6412 0 45.9985 6.39675 45.9985 14.215Z" fill="#F79E1B"/>
</svg>
